<svg viewBox="0 0 103 82.25" xmlns="http://www.w3.org/2000/svg" xmlns:xlink="http://www.w3.org/1999/xlink"><linearGradient id="a" gradientUnits="userSpaceOnUse" x1="79.008" x2="100.787" y1="45.391" y2="45.391"><stop offset="0" stop-color="#6cf0d3"/><stop offset="1" stop-color="#79d2fc"/></linearGradient><linearGradient id="b" gradientTransform="matrix(.866 -.5 1 .577 57.132 -352.775)" gradientUnits="userSpaceOnUse" x1="-399.4" x2="-398.97" y1="317.921" y2="340.362"><stop offset="0" stop-color="#00a885"/><stop offset=".1" stop-color="#06a888"/><stop offset=".227" stop-color="#15a890"/><stop offset=".37" stop-color="#30a89d"/><stop offset=".523" stop-color="#54a7af"/><stop offset=".686" stop-color="#83a7c7"/><stop offset=".853" stop-color="#bca6e3"/><stop offset="1" stop-color="#f4a6ff"/></linearGradient><linearGradient id="c" x1="-401.207" x2="-400.777" xlink:href="#b" y1="317.921" y2="340.362"/><linearGradient id="d" x1="-403.014" x2="-402.584" xlink:href="#b" y1="317.921" y2="340.362"/><linearGradient id="e" x1="-404.821" x2="-404.392" xlink:href="#b" y1="317.921" y2="340.362"/><linearGradient id="f" x1="11.645" x2="46.589" xlink:href="#a" y1="39.259" y2="39.259"/><linearGradient id="g" x1="32.086" x2="55.864" xlink:href="#a" y1="28.778" y2="28.778"/><linearGradient id="h" x1="46.127" x2="81.276" xlink:href="#a" y1="45.617" y2="65.249"/><linearGradient id="i" x1="54.929" x2="84.146" xlink:href="#a" y1="46.904" y2="63.222"/><linearGradient id="j" x1="15.4" x2="29.715" xlink:href="#a" y1="24.534" y2="32.529"/><linearGradient id="k" gradientTransform="matrix(0 -.577 -1.732 0 -1993.209 -1197.139)" x1="-2144.061" x2="-2141.26" xlink:href="#a" y1="-1159.627" y2="-1159.627"/><linearGradient id="l" gradientUnits="userSpaceOnUse" x1="44.112" x2="44.112" y1="13.906" y2="41.546"><stop offset="0" stop-color="#92d0e4"/><stop offset=".502" stop-color="#47bde4"/><stop offset="1" stop-color="#00ace4"/></linearGradient><linearGradient id="m" gradientUnits="userSpaceOnUse" x1="44.112" x2="44.112" y1="13.588" y2="41.228"><stop offset="0" stop-color="#00ace4"/><stop offset=".131" stop-color="#02a7e1"/><stop offset=".286" stop-color="#0699d8"/><stop offset=".453" stop-color="#0d81c8"/><stop offset=".629" stop-color="#185fb3"/><stop offset=".812" stop-color="#253498"/><stop offset=".998" stop-color="#350176"/><stop offset="1" stop-color="#350076"/></linearGradient><linearGradient id="n" gradientUnits="userSpaceOnUse" x1="34.132" x2="54.079" y1="29.594" y2="29.594"><stop offset=".191" stop-color="#69b1d3"/><stop offset="1" stop-color="#33647e"/></linearGradient><linearGradient id="o" gradientTransform="translate(1.477 5.541)" gradientUnits="userSpaceOnUse" x1="47.851" x2="47.851" y1="21.701" y2="25.879"><stop offset="0" stop-color="#79e4ff"/><stop offset=".16" stop-color="#74e3ff"/><stop offset=".349" stop-color="#66e1ff"/><stop offset=".554" stop-color="#4eddff"/><stop offset=".769" stop-color="#2cd7ff"/><stop offset=".991" stop-color="#02d0ff"/><stop offset="1" stop-color="#00d0ff"/></linearGradient><linearGradient id="p" x1="47.851" x2="47.851" xlink:href="#o" y1="22.468" y2="26.646"/><linearGradient id="q" x1="47.851" x2="47.851" xlink:href="#o" y1="23.236" y2="27.414"/><linearGradient id="r" x1="37.566" x2="42.451" xlink:href="#o" y1="30.753" y2="30.753"/><linearGradient id="s" x1="44.112" x2="44.112" xlink:href="#l" y1="9.694" y2="37.334"/><linearGradient id="t" x1="44.112" x2="44.112" xlink:href="#m" y1="9.376" y2="37.016"/><linearGradient id="u" x1="34.132" x2="54.079" xlink:href="#n" y1="25.382" y2="25.382"/><linearGradient id="v" x1="47.851" x2="47.851" xlink:href="#o" y1="17.489" y2="21.667"/><linearGradient id="w" x1="47.851" x2="47.851" xlink:href="#o" y1="18.256" y2="22.434"/><linearGradient id="x" x1="47.851" x2="47.851" xlink:href="#o" y1="19.024" y2="23.202"/><linearGradient id="y" x1="37.566" x2="42.451" xlink:href="#o" y1="26.541" y2="26.541"/><linearGradient id="z" x1="44.112" x2="44.112" xlink:href="#l" y1="5.482" y2="33.122"/><linearGradient id="A" x1="44.112" x2="44.112" xlink:href="#m" y1="5.164" y2="32.804"/><linearGradient id="B" x1="34.132" x2="54.079" xlink:href="#n" y1="21.17" y2="21.17"/><linearGradient id="C" x1="47.851" x2="47.851" xlink:href="#o" y1="13.277" y2="17.455"/><linearGradient id="D" x1="47.851" x2="47.851" xlink:href="#o" y1="14.045" y2="18.222"/><linearGradient id="E" x1="47.851" x2="47.851" xlink:href="#o" y1="14.812" y2="18.99"/><linearGradient id="F" x1="37.566" x2="42.451" xlink:href="#o" y1="22.329" y2="22.329"/><linearGradient id="G" x1="44.112" x2="44.112" xlink:href="#l" y1="1.27" y2="28.91"/><linearGradient id="H" x1="44.112" x2="44.112" xlink:href="#m" y1=".952" y2="28.592"/><linearGradient id="I" x1="34.132" x2="54.079" xlink:href="#n" y1="16.958" y2="16.958"/><linearGradient id="J" x1="47.851" x2="47.851" xlink:href="#o" y1="9.065" y2="13.243"/><linearGradient id="K" x1="47.851" x2="47.851" xlink:href="#o" y1="9.833" y2="14.011"/><linearGradient id="L" x1="47.851" x2="47.851" xlink:href="#o" y1="10.6" y2="14.778"/><linearGradient id="M" x1="37.566" x2="42.451" xlink:href="#o" y1="18.117" y2="18.117"/><linearGradient id="N" x1="44.112" x2="44.112" xlink:href="#l" y1="-2.942" y2="24.698"/><linearGradient id="O" gradientUnits="userSpaceOnUse" x1="38.033" x2="56.383" y1="4.932" y2="12.967"><stop offset=".226" stop-color="#4c86a0"/><stop offset="1" stop-color="#33647e"/></linearGradient><linearGradient id="P" x1="34.132" x2="54.079" xlink:href="#n" y1="12.746" y2="12.746"/><linearGradient id="Q" x1="47.851" x2="47.851" xlink:href="#o" y1="4.853" y2="9.031"/><linearGradient id="R" x1="47.851" x2="47.851" xlink:href="#o" y1="5.621" y2="9.799"/><linearGradient id="S" x1="47.851" x2="47.851" xlink:href="#o" y1="6.388" y2="10.566"/><linearGradient id="T" x1="37.566" x2="42.451" xlink:href="#o" y1="13.905" y2="13.905"/><linearGradient id="U" x1="45.373" x2="59.052" xlink:href="#a" y1="42.469" y2="50.109"/><linearGradient id="V" x1="59.605" x2="83.383" xlink:href="#a" y1="34.508" y2="34.508"/><linearGradient id="W" x1="71.631" x2="71.631" xlink:href="#l" y1="19.636" y2="47.276"/><linearGradient id="X" x1="71.631" x2="71.631" xlink:href="#m" y1="19.318" y2="46.958"/><linearGradient id="Y" x1="61.651" x2="81.598" xlink:href="#n" y1="35.323" y2="35.323"/><linearGradient id="Z" x1="75.37" x2="75.37" xlink:href="#o" y1="27.431" y2="31.609"/><linearGradient id="aa" x1="75.37" x2="75.37" xlink:href="#o" y1="28.198" y2="32.376"/><linearGradient id="ab" x1="75.37" x2="75.37" xlink:href="#o" y1="28.966" y2="33.144"/><linearGradient id="ac" x1="65.085" x2="69.97" xlink:href="#o" y1="36.483" y2="36.483"/><linearGradient id="ad" x1="71.631" x2="71.631" xlink:href="#l" y1="15.424" y2="43.064"/><linearGradient id="ae" x1="71.631" x2="71.631" xlink:href="#m" y1="15.106" y2="42.746"/><linearGradient id="af" x1="61.651" x2="81.598" xlink:href="#n" y1="31.111" y2="31.111"/><linearGradient id="ag" x1="75.37" x2="75.37" xlink:href="#o" y1="23.219" y2="27.397"/><linearGradient id="ah" x1="75.37" x2="75.37" xlink:href="#o" y1="23.986" y2="28.164"/><linearGradient id="ai" x1="75.37" x2="75.37" xlink:href="#o" y1="24.754" y2="28.932"/><linearGradient id="aj" x1="65.085" x2="69.97" xlink:href="#o" y1="32.271" y2="32.271"/><linearGradient id="ak" x1="71.631" x2="71.631" xlink:href="#l" y1="11.212" y2="38.852"/><linearGradient id="al" x1="71.631" x2="71.631" xlink:href="#m" y1="10.894" y2="38.534"/><linearGradient id="am" x1="61.651" x2="81.598" xlink:href="#n" y1="26.9" y2="26.9"/><linearGradient id="an" x1="75.37" x2="75.37" xlink:href="#o" y1="19.007" y2="23.185"/><linearGradient id="ao" x1="75.37" x2="75.37" xlink:href="#o" y1="19.774" y2="23.952"/><linearGradient id="ap" x1="75.37" x2="75.37" xlink:href="#o" y1="20.542" y2="24.72"/><linearGradient id="aq" x1="65.085" x2="69.97" xlink:href="#o" y1="28.059" y2="28.059"/><linearGradient id="ar" x1="71.631" x2="71.631" xlink:href="#l" y1="7" y2="34.64"/><linearGradient id="as" x1="71.631" x2="71.631" xlink:href="#m" y1="6.682" y2="34.322"/><linearGradient id="at" x1="61.651" x2="81.598" xlink:href="#n" y1="22.688" y2="22.688"/><linearGradient id="au" x1="75.37" x2="75.37" xlink:href="#o" y1="14.795" y2="18.973"/><linearGradient id="av" x1="75.37" x2="75.37" xlink:href="#o" y1="15.562" y2="19.74"/><linearGradient id="aw" x1="75.37" x2="75.37" xlink:href="#o" y1="16.33" y2="20.508"/><linearGradient id="ax" x1="65.085" x2="69.97" xlink:href="#o" y1="23.847" y2="23.847"/><linearGradient id="ay" x1="71.631" x2="71.631" xlink:href="#l" y1="2.788" y2="30.428"/><linearGradient id="az" x1="65.853" x2="82.398" xlink:href="#O" y1="10.567" y2="18.461"/><linearGradient id="aA" x1="61.651" x2="81.598" xlink:href="#n" y1="18.476" y2="18.476"/><linearGradient id="aB" x1="75.37" x2="75.37" xlink:href="#o" y1="10.583" y2="14.761"/><linearGradient id="aC" x1="75.37" x2="75.37" xlink:href="#o" y1="11.351" y2="15.528"/><linearGradient id="aD" x1="75.37" x2="75.37" xlink:href="#o" y1="12.118" y2="16.296"/><linearGradient id="aE" x1="65.085" x2="69.97" xlink:href="#o" y1="19.635" y2="19.635"/><linearGradient id="aF" x1="69.998" x2="93.776" xlink:href="#a" y1="63.87" y2="63.87"/><linearGradient id="aG" x1="82.024" x2="82.024" xlink:href="#l" y1="48.998" y2="76.638"/><linearGradient id="aH" x1="82.024" x2="82.024" xlink:href="#m" y1="48.68" y2="76.32"/><linearGradient id="aI" x1="72.045" x2="91.991" xlink:href="#n" y1="64.686" y2="64.686"/><linearGradient id="aJ" x1="85.763" x2="85.763" xlink:href="#o" y1="56.793" y2="60.971"/><linearGradient id="aK" x1="85.763" x2="85.763" xlink:href="#o" y1="57.561" y2="61.739"/><linearGradient id="aL" x1="85.763" x2="85.763" xlink:href="#o" y1="58.328" y2="62.506"/><linearGradient id="aM" x1="75.478" x2="80.363" xlink:href="#o" y1="65.845" y2="65.845"/><linearGradient id="aN" x1="82.024" x2="82.024" xlink:href="#l" y1="44.787" y2="72.426"/><linearGradient id="aO" x1="82.024" x2="82.024" xlink:href="#m" y1="44.468" y2="72.108"/><linearGradient id="aP" x1="72.045" x2="91.991" xlink:href="#n" y1="60.474" y2="60.474"/><linearGradient id="aQ" x1="85.763" x2="85.763" xlink:href="#o" y1="52.581" y2="56.759"/><linearGradient id="aR" x1="85.763" x2="85.763" xlink:href="#o" y1="53.349" y2="57.527"/><linearGradient id="aS" x1="85.763" x2="85.763" xlink:href="#o" y1="54.116" y2="58.294"/><linearGradient id="aT" x1="75.478" x2="80.363" xlink:href="#o" y1="61.633" y2="61.633"/><linearGradient id="aU" gradientTransform="matrix(-.866 .5 0 -1.155 -1076.665 -250.917)" x1="-1339.042" x2="-1330.077" xlink:href="#b" y1="-831.62" y2="-820.012"/><linearGradient id="aV" gradientTransform="matrix(-.866 .5 0 -1.155 -1076.665 -250.917)" x1="-1337.28" x2="-1328.315" xlink:href="#b" y1="-830.038" y2="-818.43"/><linearGradient id="aW" gradientTransform="matrix(-.866 .5 0 -1.155 -1076.665 -250.917)" x1="-1335.518" x2="-1326.553" xlink:href="#b" y1="-832.41" y2="-820.803"/><linearGradient id="aX" gradientTransform="matrix(-.866 .5 0 -1.155 -1076.665 -250.917)" x1="-1333.756" x2="-1324.791" xlink:href="#b" y1="-830.828" y2="-819.221"/><linearGradient id="aY" x1="68.269" x2="84.192" xlink:href="#a" y1="40.083" y2="48.977"/><linearGradient id="aZ" gradientTransform="matrix(1 0 0 -1 0 -1243.968)" x1="61.746" x2="64.266" xlink:href="#a" y1="-1291.693" y2="-1291.693"/><linearGradient id="a0" x1="82.024" x2="82.024" xlink:href="#l" y1="40.575" y2="68.215"/><linearGradient id="a1" x1="82.024" x2="82.024" xlink:href="#m" y1="40.256" y2="67.896"/><linearGradient id="a2" x1="72.045" x2="91.991" xlink:href="#n" y1="56.262" y2="56.262"/><linearGradient id="a3" x1="85.763" x2="85.763" xlink:href="#o" y1="48.369" y2="52.547"/><linearGradient id="a4" x1="85.763" x2="85.763" xlink:href="#o" y1="49.137" y2="53.315"/><linearGradient id="a5" x1="85.763" x2="85.763" xlink:href="#o" y1="49.904" y2="54.082"/><linearGradient id="a6" x1="75.478" x2="80.363" xlink:href="#o" y1="57.421" y2="57.421"/><linearGradient id="a7" x1="82.024" x2="82.024" xlink:href="#l" y1="36.363" y2="64.002"/><linearGradient id="a8" x1="82.024" x2="82.024" xlink:href="#m" y1="36.044" y2="63.684"/><linearGradient id="a9" x1="72.045" x2="91.991" xlink:href="#n" y1="52.05" y2="52.05"/><linearGradient id="ba" x1="85.763" x2="85.763" xlink:href="#o" y1="44.157" y2="48.335"/><linearGradient id="bb" x1="85.763" x2="85.763" xlink:href="#o" y1="44.925" y2="49.103"/><linearGradient id="bc" x1="85.763" x2="85.763" xlink:href="#o" y1="45.692" y2="49.87"/><linearGradient id="bd" x1="75.478" x2="80.363" xlink:href="#o" y1="53.209" y2="53.209"/><linearGradient id="be" x1="82.024" x2="82.024" xlink:href="#l" y1="32.151" y2="59.791"/><linearGradient id="bf" x1="76.246" x2="92.791" xlink:href="#O" y1="39.929" y2="47.823"/><linearGradient id="bg" x1="72.045" x2="91.991" xlink:href="#n" y1="47.838" y2="47.838"/><linearGradient id="bh" x1="85.763" x2="85.763" xlink:href="#o" y1="39.945" y2="44.123"/><linearGradient id="bi" x1="85.763" x2="85.763" xlink:href="#o" y1="40.713" y2="44.891"/><linearGradient id="bj" x1="85.763" x2="85.763" xlink:href="#o" y1="41.481" y2="45.658"/><linearGradient id="bk" x1="75.478" x2="80.363" xlink:href="#o" y1="48.997" y2="48.997"/><linearGradient id="bl" gradientTransform="matrix(-.866 .5 0 -1.155 -1076.665 -250.917)" x1="-1311.348" x2="-1302.383" xlink:href="#b" y1="-811.04" y2="-799.432"/><linearGradient id="bm" gradientTransform="matrix(-.866 .5 0 -1.155 -1076.665 -250.917)" x1="-1309.586" x2="-1300.621" xlink:href="#b" y1="-809.458" y2="-797.85"/><linearGradient id="bn" gradientTransform="matrix(-.866 .5 0 -1.155 -1076.665 -250.917)" x1="-1307.824" x2="-1298.859" xlink:href="#b" y1="-811.831" y2="-800.223"/><linearGradient id="bo" gradientTransform="matrix(-.866 .5 0 -1.155 -1076.665 -250.917)" x1="-1306.062" x2="-1297.097" xlink:href="#b" y1="-810.249" y2="-798.641"/><linearGradient id="bp" gradientTransform="matrix(.50422621 .86357161 -.86357161 .50422621 79.72 -6.42)" x1="37.391" x2="53.511" xlink:href="#a" y1="66.221" y2="66.221"/><linearGradient id="bq" gradientTransform="matrix(.8496995 .52726726 -.52726726 .8496995 38.251 -1.152)" x1="13.385" x2="28.908" xlink:href="#a" y1="66.518" y2="66.518"/><linearGradient id="br" x1="25.597" x2="41.005" xlink:href="#a" y1="59.21" y2="59.21"/><linearGradient id="bs" gradientUnits="userSpaceOnUse" x1="29.356" x2="29.865" y1="33.264" y2="33.264"><stop offset="0" stop-color="#788acb"/><stop offset=".128" stop-color="#8d9dd2"/><stop offset=".383" stop-color="#b1bcdf"/><stop offset=".62" stop-color="#ccd3e8"/><stop offset=".833" stop-color="#dbe1ee"/><stop offset="1" stop-color="#e1e6f0"/></linearGradient><linearGradient id="bt" gradientUnits="userSpaceOnUse" x1="23.628" x2="33.225" y1="27.964" y2="32.496"><stop offset="0" stop-color="#00eab5"/><stop offset=".182" stop-color="#00d7a7"/><stop offset=".497" stop-color="#00bd95"/><stop offset=".779" stop-color="#00ae89"/><stop offset="1" stop-color="#00a885"/></linearGradient><linearGradient id="bu" gradientUnits="userSpaceOnUse" x1="20.761" x2="43.344" y1="46.084" y2="46.084"><stop offset="0" stop-color="#00cbb5"/><stop offset=".007" stop-color="#00cbb4"/><stop offset=".389" stop-color="#00b89a"/><stop offset=".732" stop-color="#00ac8b"/><stop offset="1" stop-color="#00a885"/></linearGradient><linearGradient id="bv" x1="32.079" x2="47.846" xlink:href="#bt" y1="36.762" y2="36.762"/><linearGradient id="bw" gradientUnits="userSpaceOnUse" x1="40.753" x2="45.641" y1="62.14" y2="41.078"><stop offset="0" stop-color="#00755b"/><stop offset=".043" stop-color="#00795e"/><stop offset=".411" stop-color="#009373"/><stop offset=".741" stop-color="#00a280"/><stop offset="1" stop-color="#00a885"/></linearGradient><linearGradient id="bx" gradientUnits="userSpaceOnUse" x1="15.276" x2="53.984" y1="23.983" y2="74.101"><stop offset="0" stop-color="#01bea4"/><stop offset=".203" stop-color="#01b79a"/><stop offset=".65" stop-color="#00ac8b"/><stop offset="1" stop-color="#00a885"/></linearGradient><linearGradient id="by" gradientUnits="userSpaceOnUse" x1="13.79" x2="61.012" y1="22.57" y2="83.713"><stop offset="0" stop-color="#01ffdc"/><stop offset=".023" stop-color="#01fcd9"/><stop offset=".308" stop-color="#01d8b5"/><stop offset=".574" stop-color="#00bd9a"/><stop offset=".813" stop-color="#00ae8b"/><stop offset="1" stop-color="#00a885"/></linearGradient><linearGradient id="bz" gradientTransform="matrix(1 0 0 -1 27.32 -1203.675)" x1="12.433" x2="23.482" xlink:href="#a" y1="-1272.283" y2="-1266.112"/><linearGradient id="bA" gradientTransform="matrix(1 0 0 -1 27.32 -1203.675)" x1="9.095" x2="11.619" xlink:href="#a" y1="-1269.155" y2="-1269.155"/><linearGradient id="bB" gradientTransform="matrix(1 0 0 -1 27.32 -1203.675)" x1="19.397" x2="26.902" xlink:href="#a" y1="-1268.718" y2="-1264.526"/><linearGradient id="bC" gradientTransform="matrix(1 0 0 -1 27.32 -1203.675)" x1="15.906" x2="18.429" xlink:href="#a" y1="-1265.314" y2="-1265.314"/><linearGradient id="bD" gradientTransform="matrix(-1 0 0 1 -1245.91 0)" gradientUnits="userSpaceOnUse" x1="-1283.031" x2="-1309.516" y1="76.498" y2="51.752"><stop offset="0" stop-color="#350076"/><stop offset="1" stop-color="#00ace4"/></linearGradient><linearGradient id="bE" x1="-1290.717" x2="-1306.386" xlink:href="#bD" y1="77.148" y2="58.776"/><linearGradient id="bF" gradientTransform="matrix(-1 0 0 1 -1245.91 0)" x1="-1288.003" x2="-1317.247" xlink:href="#bs" y1="75.083" y2="71.603"/><linearGradient id="bG" gradientTransform="matrix(-1 0 0 1 -1245.91 0)" gradientUnits="userSpaceOnUse" x1="-1280.164" x2="-1322.65" y1="72.842" y2="54.825"><stop offset="0" stop-color="#352c76"/><stop offset="1" stop-color="#00ace4"/></linearGradient><linearGradient id="bH" gradientTransform="matrix(-1 0 0 1 -1245.91 0)" gradientUnits="userSpaceOnUse" x1="-1317.21" x2="-1281.45" y1="72.336" y2="73.855"><stop offset="0" stop-color="#fff"/><stop offset=".273" stop-color="#fcfdfe"/><stop offset=".441" stop-color="#f4f5fb"/><stop offset=".579" stop-color="#e6e9f5"/><stop offset=".703" stop-color="#d1d7ed"/><stop offset=".816" stop-color="#b7c0e3"/><stop offset=".919" stop-color="#97a4d7"/><stop offset="1" stop-color="#788acb"/></linearGradient><linearGradient id="bI" gradientTransform="matrix(-1 0 0 1 -1245.91 0)" gradientUnits="userSpaceOnUse" x1="-1271.125" x2="-1321.079" y1="82.153" y2="65.112"><stop offset="0" stop-color="#120076"/><stop offset="1" stop-color="#00e4d8"/></linearGradient><linearGradient id="bJ" gradientTransform="matrix(-1 0 0 1 -1245.91 0)" x1="-1295.153" x2="-1313.693" xlink:href="#bs" y1="75.266" y2="73.474"/><linearGradient id="bK" gradientTransform="matrix(-1 0 0 -1 -1893.174 -1203.675)" x1="-1920.183" x2="-1909.134" xlink:href="#a" y1="-1272.083" y2="-1265.912"/><linearGradient id="bL" gradientTransform="matrix(-1 0 0 -1 -1893.174 -1203.675)" x1="-1923.521" x2="-1920.997" xlink:href="#a" y1="-1268.955" y2="-1268.955"/><linearGradient id="bM" gradientTransform="matrix(-1 0 0 -1 -1893.174 -1203.675)" x1="-1912.999" x2="-1905.493" xlink:href="#a" y1="-1268.172" y2="-1263.98"/><linearGradient id="bN" gradientTransform="matrix(-1 0 0 -1 -1893.174 -1203.675)" x1="-1916.49" x2="-1913.966" xlink:href="#a" y1="-1264.769" y2="-1264.769"/><linearGradient id="bO" gradientTransform="translate(-196.043)" x1="227.527" x2="201.042" xlink:href="#bD" y1="76.82" y2="52.075"/><linearGradient id="bP" gradientTransform="translate(-196.043)" x1="219.841" x2="204.172" xlink:href="#bD" y1="77.47" y2="59.099"/><linearGradient id="bQ" x1="26.512" x2="-2.732" xlink:href="#bs" y1="75.406" y2="71.926"/><linearGradient id="bR" gradientTransform="translate(-196.043)" x1="230.394" x2="187.908" xlink:href="#bG" y1="73.165" y2="55.147"/><linearGradient id="bS" gradientTransform="translate(-196.043)" x1="193.348" x2="229.108" xlink:href="#bH" y1="72.659" y2="74.178"/><linearGradient id="bT" gradientTransform="translate(-196.043)" x1="239.433" x2="189.479" xlink:href="#bI" y1="82.476" y2="65.435"/><linearGradient id="bU" x1="19.362" x2=".822" xlink:href="#bs" y1="75.588" y2="73.797"/><linearGradient id="bV" x1="64.011" x2="66.158" xlink:href="#a" y1="38.729" y2="38.729"/><linearGradient id="bW" x1="48.972" x2="51.495" xlink:href="#a" y1="54.724" y2="54.724"/><path d="m88.933 52.152a5 5 0 0 1 -2.461-.6l-6.179-3.722a2.107 2.107 0 0 1 -.015-3.874l8.122-4.723a5.317 5.317 0 0 1 4.919 0l6.181 3.72a2.106 2.106 0 0 1 .016 3.873l-8.125 4.723a4.969 4.969 0 0 1 -2.458.603zm1.929-13.147a4.572 4.572 0 0 0 -2.269.553l-8.125 4.722a1.735 1.735 0 0 0 .014 3.222l6.179 3.722a4.942 4.942 0 0 0 4.541 0l8.125-4.724a1.735 1.735 0 0 0 -.014-3.222l-6.179-3.722a4.611 4.611 0 0 0 -2.272-.551z" fill="url(#a)"/><path d="m22.314 31.048-.014.009" fill="none"/><g opacity=".78"><path d="m45.193 38.894-.873.505-1.679-.97.873-.5zm.687.4-.873.5 1.678.969.874-.5zm2.366 1.366-.874.5 1.679.969.873-.5zm2.365 1.365-.873.505 1.678.969.874-.5z" fill="url(#b)"/><path d="m43.628 39.8-.873.5-1.679-.969.873-.5zm.687.4-.873.5 1.678.969.874-.5zm2.366 1.366-.874.5 1.679.97.873-.5zm2.365 1.366-.873.5 1.678.969.874-.5z" fill="url(#c)"/><path d="m42.063 40.7-.873.505-1.679-.97.873-.5zm.687.4-.873.5 1.678.969.874-.5zm2.366 1.366-.874.5 1.679.969.873-.5zm2.365 1.365-.873.505 1.678.969.874-.5z" fill="url(#d)"/><path d="m40.5 41.605-.873.5-1.679-.969.874-.5zm.687.4-.873.505 1.678.969.874-.5zm2.366 1.366-.874.5 1.679.97.873-.505zm2.365 1.366-.873.5 1.679.969.873-.5z" fill="url(#e)"/></g><path d="m27.287 56.59-14.607-8.471a1.569 1.569 0 0 1 0-2.951l13.774-7.953a.77.77 0 0 0 0-1.478l-7.811-4.575a1.345 1.345 0 0 1 0-2.528l11.14-6.486a1.984 1.984 0 0 1 1.815 0l14.991 8.652-.188.326-14.99-8.654a1.613 1.613 0 0 0 -1.438 0l-11.14 6.488a.981.981 0 0 0 0 1.877l7.812 4.575a1.136 1.136 0 0 1 0 2.13l-13.776 7.952a1.2 1.2 0 0 0 0 2.3l14.606 8.472z" fill="url(#f)"/><path d="m44.01 36.039a5 5 0 0 1 -2.461-.6l-8.178-4.722a2.107 2.107 0 0 1 -.015-3.874l8.125-4.721a5.317 5.317 0 0 1 4.919 0l8.179 4.722a2.106 2.106 0 0 1 .015 3.873l-8.125 4.723a4.969 4.969 0 0 1 -2.459.599zm-.071-14.147a4.571 4.571 0 0 0 -2.268.553l-8.126 4.722a1.736 1.736 0 0 0 .014 3.222l8.179 4.722a4.942 4.942 0 0 0 4.541 0l8.121-4.723a1.735 1.735 0 0 0 -.014-3.222l-8.178-4.722a4.612 4.612 0 0 0 -2.269-.552z" fill="url(#g)"/><path d="m77.777 59.367a4.235 4.235 0 0 1 -2-.478l-17.47-10.126a3.109 3.109 0 0 0 -2.813 0l-16.064 9.511-.191-.324 16.061-9.512a3.481 3.481 0 0 1 3.192 0l17.476 10.125a3.833 3.833 0 0 0 3.5 0l7.054-4.073a1.158 1.158 0 0 0 0-2.212l-3.472-2 .188-.326 3.472 2a1.523 1.523 0 0 1 0 2.864l-7.053 4.073a3.743 3.743 0 0 1 -1.88.478z" fill="url(#h)"/><path d="m77.791 62.454a4.238 4.238 0 0 1 -2-.478l-17.47-10.126a3.109 3.109 0 0 0 -2.813 0l-4.42 2.6-.191-.324 4.422-2.6a3.476 3.476 0 0 1 3.191 0l17.473 10.124a3.833 3.833 0 0 0 3.5 0l7.053-4.072a1.158 1.158 0 0 0 0-2.212l-3.472-2 .189-.326 3.471 2a1.523 1.523 0 0 1 0 2.864l-7.053 4.073a3.751 3.751 0 0 1 -1.88.477z" fill="url(#i)"/><path d="m16.234 39.758-.188-.325 5.521-3.2-7.974-4.769a1.855 1.855 0 0 1 .028-3.2l15.9-9.122a2.363 2.363 0 0 1 2.272-.048l4.2 2.179-.173.334-4.2-2.179a1.987 1.987 0 0 0 -1.911.04l-15.9 9.122a1.479 1.479 0 0 0 -.022 2.551l8.523 5.1z" fill="url(#j)"/><path d="m15.381 40.842a1.735 1.735 0 0 1 -.853-.207.647.647 0 0 1 0-1.2 1.861 1.861 0 0 1 1.706 0 .647.647 0 0 1 0 1.2 1.737 1.737 0 0 1 -.853.207zm0-1.24a1.364 1.364 0 0 0 -.665.156c-.14.081-.221.181-.221.276s.081.194.221.275a1.492 1.492 0 0 0 1.33 0c.14-.081.22-.182.22-.275s-.08-.2-.22-.276a1.37 1.37 0 0 0 -.665-.158z" fill="url(#k)"/><path d="m53.317 23.7a1.473 1.473 0 0 1 .722.8c.142.463-.095.956-.71 1.314l-7.363 4.286a4.023 4.023 0 0 1 -3.648 0l-7.412-4.279a1.117 1.117 0 0 1 -.012-2.114l7.363-4.279a4.025 4.025 0 0 1 3.649 0z" fill="url(#l)"/><path d="m53.317 23.385a1.116 1.116 0 0 1 .012 2.113l-7.363 4.279a4.017 4.017 0 0 1 -3.648 0l-7.412-4.277a1.116 1.116 0 0 1 -.012-2.113l7.363-4.279a4.019 4.019 0 0 1 3.649 0z" fill="url(#m)"/><path d="m54.079 24.767-.013 3.895a1.271 1.271 0 0 1 -.748 1.047l-7.363 4.281a4.021 4.021 0 0 1 -3.647 0l-7.414-4.281a1.3 1.3 0 0 1 -.762-1.063l.013-3.886a1.289 1.289 0 0 0 .761 1.058l7.411 4.282a4.009 4.009 0 0 0 3.65 0l7.364-4.277a1.282 1.282 0 0 0 .748-1.056z" fill="url(#n)"/><g fill="#00e7ff"><path d="m35.381 28a.534.534 0 0 0 -.241-.418c-.133-.077-.241-.015-.241.139a.534.534 0 0 0 .241.418c.133.074.241.012.241-.139z"/><path d="m36.168 28.443a.532.532 0 0 0 -.242-.418c-.133-.077-.241-.015-.241.139a.534.534 0 0 0 .241.418c.134.077.242.018.242-.139z"/><path d="m36.894 28.871a.534.534 0 0 0 -.241-.418c-.134-.077-.242-.015-.242.139a.532.532 0 0 0 .242.418c.133.077.241.015.241-.139z"/></g><path d="m52.706 27.242-6.757 3.904v.274l6.757-3.928z" fill="url(#o)" opacity=".16"/><path d="m52.706 28.01-6.757 3.903v.275l6.757-3.928z" fill="url(#p)" opacity=".16"/><path d="m52.706 28.778-6.757 3.903v.275l6.757-3.929z" fill="url(#q)" opacity=".16"/><path d="m42.331 31.935-4.646-2.683c-.066-.038-.119 0-.119.091a.286.286 0 0 0 .119.228l4.646 2.682c.066.038.12 0 .12-.09a.286.286 0 0 0 -.12-.228z" fill="url(#r)" opacity=".34"/><path d="m53.317 19.491a1.473 1.473 0 0 1 .722.8c.142.463-.095.956-.71 1.314l-7.363 4.279a4.023 4.023 0 0 1 -3.648 0l-7.412-4.279a1.116 1.116 0 0 1 -.012-2.113l7.363-4.28a4.025 4.025 0 0 1 3.649 0z" fill="url(#s)"/><path d="m53.317 19.173a1.116 1.116 0 0 1 .012 2.113l-7.363 4.279a4.017 4.017 0 0 1 -3.648 0l-7.412-4.279a1.116 1.116 0 0 1 -.012-2.113l7.363-4.279a4.019 4.019 0 0 1 3.649 0z" fill="url(#t)"/><path d="m54.079 20.555-.013 3.895a1.271 1.271 0 0 1 -.748 1.047l-7.363 4.281a4.021 4.021 0 0 1 -3.647 0l-7.414-4.278a1.3 1.3 0 0 1 -.762-1.063l.013-3.886a1.289 1.289 0 0 0 .761 1.058l7.411 4.277a4.009 4.009 0 0 0 3.65 0l7.364-4.277a1.282 1.282 0 0 0 .748-1.054z" fill="url(#u)"/><g fill="#00e7ff"><path d="m35.381 23.785a.534.534 0 0 0 -.241-.418c-.133-.077-.241-.015-.241.139a.534.534 0 0 0 .241.418c.133.076.241.015.241-.139z"/><path d="m36.168 24.231a.532.532 0 0 0 -.242-.418c-.133-.077-.241-.015-.241.139a.534.534 0 0 0 .241.418c.134.077.242.015.242-.139z"/><path d="m36.894 24.659a.534.534 0 0 0 -.241-.418c-.134-.077-.242-.015-.242.139a.532.532 0 0 0 .242.418c.133.077.241.015.241-.139z"/></g><path d="m52.706 23.03-6.757 3.904v.274l6.757-3.928z" fill="url(#v)" opacity=".16"/><path d="m52.706 23.798-6.757 3.903v.275l6.757-3.928z" fill="url(#w)" opacity=".16"/><path d="m52.706 24.566-6.757 3.903v.275l6.757-3.928z" fill="url(#x)" opacity=".16"/><path d="m42.331 27.723-4.646-2.683c-.066-.038-.119 0-.119.091a.285.285 0 0 0 .119.228l4.646 2.682c.066.038.12 0 .12-.09a.286.286 0 0 0 -.12-.228z" fill="url(#y)" opacity=".34"/><path d="m53.317 15.279a1.473 1.473 0 0 1 .722.8c.142.463-.095.956-.71 1.314l-7.363 4.279a4.023 4.023 0 0 1 -3.648 0l-7.412-4.279a1.116 1.116 0 0 1 -.012-2.113l7.363-4.28a4.025 4.025 0 0 1 3.649 0z" fill="url(#z)"/><path d="m53.317 14.961a1.116 1.116 0 0 1 .012 2.113l-7.363 4.279a4.017 4.017 0 0 1 -3.648 0l-7.412-4.279a1.116 1.116 0 0 1 -.012-2.113l7.363-4.279a4.019 4.019 0 0 1 3.649 0z" fill="url(#A)"/><path d="m54.079 16.343-.013 3.895a1.271 1.271 0 0 1 -.748 1.047l-7.363 4.281a4.021 4.021 0 0 1 -3.647 0l-7.414-4.281a1.3 1.3 0 0 1 -.762-1.063l.013-3.886a1.289 1.289 0 0 0 .761 1.058l7.411 4.277a4.009 4.009 0 0 0 3.65 0l7.364-4.277a1.282 1.282 0 0 0 .748-1.051z" fill="url(#B)"/><path d="m35.381 19.573a.534.534 0 0 0 -.241-.418c-.133-.077-.241-.015-.241.139a.534.534 0 0 0 .241.418c.133.077.241.015.241-.139z" fill="#00e7ff"/><path d="m36.168 20.019a.532.532 0 0 0 -.242-.418c-.133-.077-.241-.015-.241.139a.534.534 0 0 0 .241.418c.134.077.242.015.242-.139z" fill="#00e7ff"/><path d="m36.894 20.447a.534.534 0 0 0 -.241-.418c-.134-.077-.242-.015-.242.139a.532.532 0 0 0 .242.418c.133.077.241.014.241-.139z" fill="#00e7ff"/><path d="m52.706 18.818-6.757 3.904v.274l6.757-3.928z" fill="url(#C)" opacity=".16"/><path d="m52.706 19.586-6.757 3.903v.275l6.757-3.928z" fill="url(#D)" opacity=".16"/><path d="m52.706 20.354-6.757 3.903v.275l6.757-3.928z" fill="url(#E)" opacity=".16"/><path d="m42.331 23.511-4.646-2.683c-.066-.038-.119 0-.119.091a.285.285 0 0 0 .119.228l4.646 2.682c.066.038.12 0 .12-.09a.286.286 0 0 0 -.12-.228z" fill="url(#F)" opacity=".34"/><path d="m53.317 11.068a1.468 1.468 0 0 1 .722.8c.142.463-.095.956-.71 1.314l-7.363 4.278a4.023 4.023 0 0 1 -3.648 0l-7.412-4.279a1.116 1.116 0 0 1 -.012-2.113l7.363-4.28a4.025 4.025 0 0 1 3.649 0z" fill="url(#G)"/><path d="m53.317 10.749a1.116 1.116 0 0 1 .012 2.113l-7.363 4.279a4.017 4.017 0 0 1 -3.648 0l-7.412-4.279a1.116 1.116 0 0 1 -.012-2.113l7.363-4.279a4.019 4.019 0 0 1 3.649 0z" fill="url(#H)"/><path d="m54.079 12.131-.013 3.895a1.274 1.274 0 0 1 -.748 1.048l-7.363 4.28a4.021 4.021 0 0 1 -3.647 0l-7.414-4.28a1.3 1.3 0 0 1 -.762-1.064l.013-3.886a1.289 1.289 0 0 0 .761 1.058l7.411 4.277a4.009 4.009 0 0 0 3.65 0l7.364-4.277a1.282 1.282 0 0 0 .748-1.051z" fill="url(#I)"/><path d="m35.381 15.361a.534.534 0 0 0 -.241-.418c-.133-.077-.241-.015-.241.139a.534.534 0 0 0 .241.418c.133.077.241.015.241-.139z" fill="#00e7ff"/><path d="m36.168 15.807a.532.532 0 0 0 -.242-.418c-.133-.077-.241-.015-.241.139a.534.534 0 0 0 .241.418c.134.077.242.015.242-.139z" fill="#00e7ff"/><path d="m36.894 16.235a.534.534 0 0 0 -.241-.418c-.134-.077-.242-.015-.242.139a.532.532 0 0 0 .242.418c.133.077.241.015.241-.139z" fill="#00e7ff"/><path d="m52.706 14.606-6.757 3.904v.274l6.757-3.928z" fill="url(#J)" opacity=".16"/><path d="m52.706 15.374-6.757 3.903v.275l6.757-3.928z" fill="url(#K)" opacity=".16"/><path d="m52.706 16.142-6.757 3.903v.275l6.757-3.928z" fill="url(#L)" opacity=".16"/><path d="m42.331 19.3-4.646-2.683c-.066-.038-.119 0-.119.091a.285.285 0 0 0 .119.228l4.646 2.682c.066.038.12 0 .12-.09a.286.286 0 0 0 -.12-.228z" fill="url(#M)" opacity=".34"/><path d="m53.317 6.856a1.468 1.468 0 0 1 .722.8c.142.463-.095.956-.71 1.314l-7.363 4.279a4.023 4.023 0 0 1 -3.648 0l-7.412-4.28a1.116 1.116 0 0 1 -.012-2.113l7.363-4.28a4.025 4.025 0 0 1 3.649 0z" fill="url(#N)"/><path d="m53.317 6.537a1.116 1.116 0 0 1 .012 2.113l-7.363 4.28a4.023 4.023 0 0 1 -3.648 0l-7.412-4.28a1.116 1.116 0 0 1 -.012-2.113l7.363-4.279a4.019 4.019 0 0 1 3.649 0z" fill="url(#O)"/><path d="m54.079 7.919-.013 3.9a1.274 1.274 0 0 1 -.748 1.048l-7.363 4.28a4.021 4.021 0 0 1 -3.647 0l-7.414-4.28a1.3 1.3 0 0 1 -.762-1.064l.013-3.886a1.288 1.288 0 0 0 .761 1.058l7.411 4.277a4.009 4.009 0 0 0 3.65 0l7.364-4.282a1.282 1.282 0 0 0 .748-1.051z" fill="url(#P)"/><path d="m35.381 11.149a.534.534 0 0 0 -.241-.418c-.133-.077-.241-.015-.241.139a.534.534 0 0 0 .241.418c.133.077.241.012.241-.139z" fill="#00e7ff"/><path d="m36.168 11.6a.532.532 0 0 0 -.242-.418c-.133-.077-.241-.015-.241.139a.534.534 0 0 0 .241.418c.134.072.242.01.242-.139z" fill="#00e7ff"/><path d="m36.894 12.023a.534.534 0 0 0 -.241-.418c-.134-.077-.242-.015-.242.139a.532.532 0 0 0 .242.418c.133.077.241.015.241-.139z" fill="#00e7ff"/><path d="m52.706 10.394-6.757 3.904v.274l6.757-3.928z" fill="url(#Q)" opacity=".16"/><path d="m52.706 11.162-6.757 3.904v.274l6.757-3.928z" fill="url(#R)" opacity=".16"/><path d="m52.706 11.93-6.757 3.903v.275l6.757-3.928z" fill="url(#S)" opacity=".16"/><path d="m42.331 15.087-4.646-2.687c-.066-.038-.119 0-.119.091a.285.285 0 0 0 .119.228l4.646 2.682c.066.038.12 0 .12-.09a.286.286 0 0 0 -.12-.224z" fill="url(#T)" opacity=".34"/><path d="m39.298 54.012-.19-.325 26.02-15.121.19.326z" fill="url(#U)"/><path d="m71.529 41.769a5 5 0 0 1 -2.46-.6l-8.179-4.724a2.107 2.107 0 0 1 -.015-3.874l8.125-4.721a5.317 5.317 0 0 1 4.919 0l8.181 4.72a2.106 2.106 0 0 1 .015 3.873l-8.125 4.723a4.967 4.967 0 0 1 -2.461.603zm-.071-14.147a4.578 4.578 0 0 0 -2.269.553l-8.125 4.725a1.736 1.736 0 0 0 .014 3.222l8.179 4.722a4.944 4.944 0 0 0 4.542 0l8.125-4.722a1.735 1.735 0 0 0 -.015-3.222l-8.178-4.722a4.612 4.612 0 0 0 -2.273-.556z" fill="url(#V)"/><path d="m80.836 29.433a1.47 1.47 0 0 1 .722.8c.142.463-.1.956-.71 1.313l-7.363 4.28a4.023 4.023 0 0 1 -3.648 0l-7.412-4.279a1.117 1.117 0 0 1 -.012-2.114l7.363-4.279a4.025 4.025 0 0 1 3.649 0z" fill="url(#W)"/><path d="m80.836 29.115a1.116 1.116 0 0 1 .012 2.113l-7.363 4.279a4.017 4.017 0 0 1 -3.648 0l-7.412-4.279a1.116 1.116 0 0 1 -.012-2.113l7.363-4.279a4.019 4.019 0 0 1 3.649 0z" fill="url(#X)"/><path d="m81.6 30.5-.013 3.895a1.274 1.274 0 0 1 -.748 1.048l-7.365 4.277a4.021 4.021 0 0 1 -3.647 0l-7.414-4.281a1.3 1.3 0 0 1 -.762-1.063l.013-3.886a1.286 1.286 0 0 0 .761 1.057l7.411 4.278a4.009 4.009 0 0 0 3.65 0l7.364-4.278a1.28 1.28 0 0 0 .75-1.047z" fill="url(#Y)"/><path d="m62.9 33.727a.534.534 0 0 0 -.241-.418c-.133-.077-.241-.015-.241.139a.534.534 0 0 0 .241.418c.133.077.241.015.241-.139z" fill="#00e7ff"/><path d="m63.687 34.173a.532.532 0 0 0 -.242-.418c-.133-.077-.241-.015-.241.139a.534.534 0 0 0 .241.418c.134.077.242.015.242-.139z" fill="#00e7ff"/><path d="m64.413 34.6a.534.534 0 0 0 -.241-.418c-.134-.077-.242-.015-.242.139a.532.532 0 0 0 .242.418c.133.078.241.016.241-.139z" fill="#00e7ff"/><path d="m80.225 32.972-6.757 3.904v.274l6.757-3.928z" fill="url(#Z)" opacity=".16"/><path d="m80.225 33.74-6.757 3.903v.275l6.757-3.928z" fill="url(#aa)" opacity=".16"/><path d="m80.225 34.507-6.757 3.904v.274l6.757-3.928z" fill="url(#ab)" opacity=".16"/><path d="m69.85 37.665-4.65-2.683c-.066-.038-.119 0-.119.09a.287.287 0 0 0 .119.229l4.646 2.682c.066.038.12 0 .12-.09a.286.286 0 0 0 -.116-.228z" fill="url(#ac)" opacity=".34"/><path d="m80.836 25.221a1.47 1.47 0 0 1 .722.8c.142.463-.1.956-.71 1.314l-7.363 4.279a4.023 4.023 0 0 1 -3.648 0l-7.412-4.279a1.117 1.117 0 0 1 -.012-2.114l7.363-4.279a4.025 4.025 0 0 1 3.649 0z" fill="url(#ad)"/><path d="m80.836 24.9a1.116 1.116 0 0 1 .012 2.113l-7.363 4.287a4.017 4.017 0 0 1 -3.648 0l-7.412-4.279a1.116 1.116 0 0 1 -.012-2.113l7.363-4.279a4.019 4.019 0 0 1 3.649 0z" fill="url(#ae)"/><path d="m81.6 26.284-.013 3.9a1.271 1.271 0 0 1 -.748 1.047l-7.363 4.281a4.021 4.021 0 0 1 -3.647 0l-7.414-4.281a1.3 1.3 0 0 1 -.762-1.063l.013-3.886a1.286 1.286 0 0 0 .761 1.057l7.411 4.278a4.009 4.009 0 0 0 3.65 0l7.364-4.278a1.28 1.28 0 0 0 .748-1.055z" fill="url(#af)"/><path d="m62.9 29.515a.534.534 0 0 0 -.241-.418c-.133-.077-.241-.015-.241.139a.534.534 0 0 0 .241.418c.133.077.241.015.241-.139z" fill="#00e7ff"/><path d="m63.687 29.961a.532.532 0 0 0 -.242-.418c-.133-.077-.241-.015-.241.139a.534.534 0 0 0 .241.418c.134.077.242.015.242-.139z" fill="#00e7ff"/><path d="m64.413 30.389a.534.534 0 0 0 -.241-.418c-.134-.077-.242-.015-.242.139a.532.532 0 0 0 .242.418c.133.077.241.015.241-.139z" fill="#00e7ff"/><path d="m80.225 28.76-6.757 3.904v.274l6.757-3.928z" fill="url(#ag)" opacity=".16"/><path d="m80.225 29.528-6.757 3.903v.275l6.757-3.928z" fill="url(#ah)" opacity=".16"/><path d="m80.225 30.296-6.757 3.903v.275l6.757-3.929z" fill="url(#ai)" opacity=".16"/><path d="m69.85 33.453-4.65-2.683c-.066-.038-.119 0-.119.09a.287.287 0 0 0 .119.229l4.646 2.682c.066.038.12 0 .12-.09a.286.286 0 0 0 -.116-.228z" fill="url(#aj)" opacity=".34"/><path d="m80.836 21.009a1.473 1.473 0 0 1 .722.8c.142.463-.1.956-.71 1.314l-7.363 4.277a4.023 4.023 0 0 1 -3.648 0l-7.412-4.279a1.117 1.117 0 0 1 -.012-2.114l7.363-4.279a4.025 4.025 0 0 1 3.649 0z" fill="url(#ak)"/><path d="m80.836 20.691a1.116 1.116 0 0 1 .012 2.113l-7.363 4.279a4.017 4.017 0 0 1 -3.648 0l-7.412-4.283a1.116 1.116 0 0 1 -.012-2.113l7.363-4.279a4.019 4.019 0 0 1 3.649 0z" fill="url(#al)"/><path d="m81.6 22.073-.013 3.895a1.271 1.271 0 0 1 -.748 1.047l-7.365 4.285a4.021 4.021 0 0 1 -3.647 0l-7.414-4.281a1.3 1.3 0 0 1 -.762-1.063l.013-3.886a1.289 1.289 0 0 0 .761 1.058l7.411 4.272a4.009 4.009 0 0 0 3.65 0l7.364-4.277a1.282 1.282 0 0 0 .75-1.05z" fill="url(#am)"/><path d="m62.9 25.3a.534.534 0 0 0 -.241-.418c-.133-.077-.241-.015-.241.139a.534.534 0 0 0 .241.418c.133.08.241.018.241-.139z" fill="#00e7ff"/><path d="m63.687 25.749a.532.532 0 0 0 -.242-.418c-.133-.077-.241-.015-.241.139a.534.534 0 0 0 .241.418c.134.077.242.012.242-.139z" fill="#00e7ff"/><path d="m64.413 26.177a.534.534 0 0 0 -.241-.418c-.134-.077-.242-.015-.242.139a.532.532 0 0 0 .242.418c.133.077.241.015.241-.139z" fill="#00e7ff"/><path d="m80.225 24.548-6.757 3.904v.274l6.757-3.928z" fill="url(#an)" opacity=".16"/><path d="m80.225 25.316-6.757 3.903v.275l6.757-3.928z" fill="url(#ao)" opacity=".16"/><path d="m80.225 26.084-6.757 3.903v.275l6.757-3.929z" fill="url(#ap)" opacity=".16"/><path d="m69.85 29.241-4.65-2.683c-.066-.038-.119 0-.119.091a.286.286 0 0 0 .119.228l4.646 2.682c.066.038.12 0 .12-.09a.286.286 0 0 0 -.116-.228z" fill="url(#aq)" opacity=".34"/><path d="m80.836 16.8a1.473 1.473 0 0 1 .722.8c.142.463-.1.956-.71 1.314l-7.363 4.276a4.023 4.023 0 0 1 -3.648 0l-7.412-4.279a1.116 1.116 0 0 1 -.012-2.113l7.363-4.28a4.025 4.025 0 0 1 3.649 0z" fill="url(#ar)"/><path d="m80.836 16.479a1.116 1.116 0 0 1 .012 2.113l-7.363 4.279a4.017 4.017 0 0 1 -3.648 0l-7.412-4.279a1.116 1.116 0 0 1 -.012-2.113l7.363-4.279a4.019 4.019 0 0 1 3.649 0z" fill="url(#as)"/><path d="m81.6 17.861-.013 3.895a1.271 1.271 0 0 1 -.748 1.047l-7.363 4.281a4.021 4.021 0 0 1 -3.647 0l-7.416-4.284a1.3 1.3 0 0 1 -.762-1.063l.013-3.886a1.289 1.289 0 0 0 .761 1.058l7.411 4.277a4.009 4.009 0 0 0 3.65 0l7.364-4.277a1.282 1.282 0 0 0 .75-1.048z" fill="url(#at)"/><path d="m62.9 21.091a.534.534 0 0 0 -.241-.418c-.133-.077-.241-.015-.241.139a.534.534 0 0 0 .241.418c.133.077.241.015.241-.139z" fill="#00e7ff"/><path d="m63.687 21.537a.532.532 0 0 0 -.242-.418c-.133-.077-.241-.015-.241.139a.534.534 0 0 0 .241.418c.134.077.242.015.242-.139z" fill="#00e7ff"/><path d="m64.413 21.965a.534.534 0 0 0 -.241-.418c-.134-.077-.242-.015-.242.139a.532.532 0 0 0 .242.418c.133.077.241.015.241-.139z" fill="#00e7ff"/><path d="m80.225 20.336-6.757 3.904v.274l6.757-3.928z" fill="url(#au)" opacity=".16"/><path d="m80.225 21.104-6.757 3.903v.275l6.757-3.928z" fill="url(#av)" opacity=".16"/><path d="m80.225 21.872-6.757 3.903v.275l6.757-3.928z" fill="url(#aw)" opacity=".16"/><path d="m69.85 25.029-4.65-2.683c-.066-.038-.119 0-.119.091a.285.285 0 0 0 .119.228l4.646 2.682c.066.038.12 0 .12-.09a.286.286 0 0 0 -.116-.228z" fill="url(#ax)" opacity=".34"/><path d="m80.836 12.585a1.473 1.473 0 0 1 .722.8c.142.463-.1.956-.71 1.314l-7.363 4.279a4.023 4.023 0 0 1 -3.648 0l-7.412-4.278a1.116 1.116 0 0 1 -.012-2.113l7.363-4.28a4.025 4.025 0 0 1 3.649 0z" fill="url(#ay)"/><path d="m80.836 12.267a1.116 1.116 0 0 1 .012 2.113l-7.363 4.279a4.017 4.017 0 0 1 -3.648 0l-7.412-4.279a1.116 1.116 0 0 1 -.012-2.113l7.363-4.279a4.019 4.019 0 0 1 3.649 0z" fill="url(#az)"/><path d="m81.6 13.649-.013 3.9a1.271 1.271 0 0 1 -.748 1.047l-7.363 4.281a4.021 4.021 0 0 1 -3.647 0l-7.414-4.281a1.3 1.3 0 0 1 -.762-1.063l.013-3.886a1.289 1.289 0 0 0 .761 1.058l7.411 4.277a4.009 4.009 0 0 0 3.65 0l7.362-4.282a1.282 1.282 0 0 0 .75-1.051z" fill="url(#aA)"/><path d="m62.9 16.879a.534.534 0 0 0 -.241-.418c-.133-.077-.241-.015-.241.139a.534.534 0 0 0 .241.418c.133.082.241.015.241-.139z" fill="#00e7ff"/><path d="m63.687 17.325a.532.532 0 0 0 -.242-.418c-.133-.077-.241-.015-.241.139a.534.534 0 0 0 .241.418c.134.077.242.015.242-.139z" fill="#00e7ff"/><path d="m64.413 17.753a.534.534 0 0 0 -.241-.418c-.134-.077-.242-.015-.242.139a.532.532 0 0 0 .242.418c.133.077.241.015.241-.139z" fill="#00e7ff"/><path d="m80.225 16.124-6.757 3.904v.274l6.757-3.928z" fill="url(#aB)" opacity=".16"/><path d="m80.225 16.892-6.757 3.903v.275l6.757-3.928z" fill="url(#aC)" opacity=".16"/><path d="m80.225 17.66-6.757 3.903v.275l6.757-3.928z" fill="url(#aD)" opacity=".16"/><path d="m69.85 20.817-4.65-2.683c-.066-.038-.119 0-.119.091a.285.285 0 0 0 .119.228l4.646 2.682c.066.038.12 0 .12-.09a.286.286 0 0 0 -.116-.228z" fill="url(#aE)" opacity=".34"/><path d="m81.923 71.131a4.985 4.985 0 0 1 -2.461-.6l-8.179-4.721a2.107 2.107 0 0 1 -.015-3.874l8.125-4.722a5.317 5.317 0 0 1 4.919 0l8.179 4.722a2.107 2.107 0 0 1 .015 3.874l-8.125 4.722a4.963 4.963 0 0 1 -2.458.599zm-.072-14.147a4.582 4.582 0 0 0 -2.268.553l-8.126 4.722a1.736 1.736 0 0 0 .014 3.222l8.179 4.719a4.948 4.948 0 0 0 4.542 0l8.125-4.722a1.736 1.736 0 0 0 -.015-3.223l-8.178-4.721a4.612 4.612 0 0 0 -2.273-.55z" fill="url(#aF)"/><path d="m91.23 58.8a1.47 1.47 0 0 1 .721.8c.142.463-.095.956-.71 1.314l-7.363 4.279a4.017 4.017 0 0 1 -3.648 0l-7.412-4.279a1.116 1.116 0 0 1 -.012-2.113l7.364-4.28a4.023 4.023 0 0 1 3.648 0z" fill="url(#aG)"/><path d="m91.23 58.477a1.116 1.116 0 0 1 .011 2.113l-7.363 4.28a4.023 4.023 0 0 1 -3.648 0l-7.412-4.28a1.116 1.116 0 0 1 -.012-2.113l7.364-4.277a4.023 4.023 0 0 1 3.648 0z" fill="url(#aH)"/><path d="m91.991 59.859-.013 3.895a1.274 1.274 0 0 1 -.748 1.046l-7.363 4.28a4.021 4.021 0 0 1 -3.647 0l-7.414-4.28a1.3 1.3 0 0 1 -.761-1.064l.012-3.886a1.288 1.288 0 0 0 .761 1.058l7.412 4.277a4.007 4.007 0 0 0 3.649 0l7.364-4.277a1.28 1.28 0 0 0 .748-1.049z" fill="url(#aI)"/><path d="m73.293 63.089a.534.534 0 0 0 -.241-.418c-.133-.077-.241-.015-.241.139a.534.534 0 0 0 .241.418c.133.077.241.015.241-.139z" fill="#00e7ff"/><path d="m74.08 63.535a.532.532 0 0 0 -.242-.418c-.133-.077-.241-.015-.241.139a.534.534 0 0 0 .241.418c.134.077.242.015.242-.139z" fill="#00e7ff"/><path d="m74.806 63.963a.534.534 0 0 0 -.241-.418c-.133-.077-.241-.015-.241.139a.534.534 0 0 0 .241.418c.135.077.241.015.241-.139z" fill="#00e7ff"/><path d="m90.618 62.335-6.757 3.903v.274l6.757-3.928z" fill="url(#aJ)" opacity=".16"/><path d="m90.618 63.102-6.757 3.904v.274l6.757-3.928z" fill="url(#aK)" opacity=".16"/><path d="m90.618 63.87-6.757 3.903v.275l6.757-3.928z" fill="url(#aL)" opacity=".16"/><path d="m80.243 67.027-4.643-2.683c-.066-.038-.119 0-.119.091a.285.285 0 0 0 .119.228l4.646 2.682c.066.039.12 0 .12-.09a.286.286 0 0 0 -.123-.228z" fill="url(#aM)" opacity=".34"/><path d="m91.23 54.584a1.47 1.47 0 0 1 .721.8c.142.463-.095.957-.71 1.314l-7.363 4.279a4.017 4.017 0 0 1 -3.648 0l-7.412-4.277a1.116 1.116 0 0 1 -.012-2.113l7.364-4.279a4.017 4.017 0 0 1 3.648 0z" fill="url(#aN)"/><path d="m91.23 54.265a1.116 1.116 0 0 1 .011 2.113l-7.363 4.28a4.023 4.023 0 0 1 -3.648 0l-7.412-4.28a1.116 1.116 0 0 1 -.012-2.113l7.364-4.279a4.023 4.023 0 0 1 3.648 0z" fill="url(#aO)"/><path d="m91.991 55.647-.013 3.9a1.274 1.274 0 0 1 -.748 1.048l-7.363 4.28a4.021 4.021 0 0 1 -3.647 0l-7.414-4.28a1.3 1.3 0 0 1 -.761-1.064l.012-3.886a1.288 1.288 0 0 0 .761 1.058l7.412 4.277a4.007 4.007 0 0 0 3.649 0l7.364-4.28a1.28 1.28 0 0 0 .748-1.053z" fill="url(#aP)"/><path d="m73.293 58.877a.534.534 0 0 0 -.241-.418c-.133-.077-.241-.015-.241.139a.534.534 0 0 0 .241.418c.133.077.241.015.241-.139z" fill="#00e7ff"/><path d="m74.08 59.323a.532.532 0 0 0 -.242-.418c-.133-.077-.241-.015-.241.139a.534.534 0 0 0 .241.418c.134.077.242.015.242-.139z" fill="#00e7ff"/><path d="m74.806 59.751a.534.534 0 0 0 -.241-.418c-.133-.077-.241-.015-.241.139a.534.534 0 0 0 .241.418c.135.077.241.015.241-.139z" fill="#00e7ff"/><path d="m90.618 58.123-6.757 3.903v.275l6.757-3.929z" fill="url(#aQ)" opacity=".16"/><path d="m90.618 58.89-6.757 3.904v.274l6.757-3.928z" fill="url(#aR)" opacity=".16"/><path d="m90.618 59.658-6.757 3.903v.275l6.757-3.928z" fill="url(#aS)" opacity=".16"/><path d="m80.243 62.815-4.643-2.682c-.066-.039-.119 0-.119.09a.285.285 0 0 0 .119.228l4.646 2.682c.066.039.12 0 .12-.09a.286.286 0 0 0 -.123-.228z" fill="url(#aT)" opacity=".34"/><g opacity=".4"><path d="m78.616 45.87.895-.516v-20.478l-.895.516z" fill="url(#aU)"/><path d="m77.091 44.924.894-.516v-20.478l-.894.517z" fill="url(#aV)"/><path d="m75.565 48.546.894-.517v-20.478l-.894.517z" fill="url(#aW)"/><path d="m74.039 47.6.894-.517v-20.477l-.894.516z" fill="url(#aX)"/></g><path d="m88.756 40.805-17.48 10.12a3.457 3.457 0 0 1 -3.19 0l-4.34-2.55-.08-.05.19-.32.23.13 4.19 2.47a3.177 3.177 0 0 0 2.82 0l17.47-10.13" fill="url(#aY)"/><path d="m63.856 47.125a1.846 1.846 0 0 0 -1.71 0 .71.71 0 0 0 -.4.6.7.7 0 0 0 .4.6 1.739 1.739 0 0 0 .86.21 1.639 1.639 0 0 0 .74-.16.37.37 0 0 0 .11-.05.634.634 0 0 0 .23-.19.57.57 0 0 0 .18-.41.722.722 0 0 0 -.41-.6zm-1.52.88c-.14-.08-.22-.18-.22-.28s.08-.19.22-.27a1.329 1.329 0 0 1 .67-.16 1.291 1.291 0 0 1 .66.16c.14.08.22.18.22.27s-.08.2-.22.28a1.483 1.483 0 0 1 -1.33 0z" fill="url(#aZ)"/><path d="m91.23 50.372a1.47 1.47 0 0 1 .721.8c.142.463-.095.957-.71 1.314l-7.363 4.279a4.017 4.017 0 0 1 -3.648 0l-7.412-4.279a1.116 1.116 0 0 1 -.012-2.113l7.364-4.279a4.017 4.017 0 0 1 3.648 0z" fill="url(#a0)"/><path d="m91.23 50.053a1.116 1.116 0 0 1 .011 2.113l-7.363 4.28a4.023 4.023 0 0 1 -3.648 0l-7.412-4.279a1.117 1.117 0 0 1 -.012-2.114l7.364-4.279a4.023 4.023 0 0 1 3.648 0z" fill="url(#a1)"/><path d="m91.991 51.435-.013 3.895a1.274 1.274 0 0 1 -.748 1.048l-7.363 4.28a4.021 4.021 0 0 1 -3.647 0l-7.414-4.28a1.3 1.3 0 0 1 -.761-1.064l.012-3.886a1.288 1.288 0 0 0 .761 1.058l7.412 4.277a4.007 4.007 0 0 0 3.649 0l7.364-4.277a1.28 1.28 0 0 0 .748-1.051z" fill="url(#a2)"/><path d="m73.293 54.665a.534.534 0 0 0 -.241-.418c-.133-.077-.241-.015-.241.139a.534.534 0 0 0 .241.418c.133.077.241.015.241-.139z" fill="#00e7ff"/><path d="m74.08 55.111a.532.532 0 0 0 -.242-.418c-.133-.077-.241-.014-.241.139a.534.534 0 0 0 .241.418c.134.077.242.015.242-.139z" fill="#00e7ff"/><path d="m74.806 55.539a.534.534 0 0 0 -.241-.418c-.133-.077-.241-.014-.241.139a.534.534 0 0 0 .241.418c.135.077.241.015.241-.139z" fill="#00e7ff"/><path d="m90.618 53.911-6.757 3.903v.275l6.757-3.929z" fill="url(#a3)" opacity=".16"/><path d="m90.618 54.678-6.757 3.904v.274l6.757-3.928z" fill="url(#a4)" opacity=".16"/><path d="m90.618 55.446-6.757 3.903v.275l6.757-3.928z" fill="url(#a5)" opacity=".16"/><path d="m80.243 58.6-4.643-2.679c-.066-.039-.119 0-.119.09a.285.285 0 0 0 .119.228l4.646 2.683c.066.038.12 0 .12-.091a.286.286 0 0 0 -.123-.231z" fill="url(#a6)" opacity=".34"/><path d="m91.23 46.16a1.473 1.473 0 0 1 .721.8c.142.463-.095.957-.71 1.314l-7.363 4.279a4.017 4.017 0 0 1 -3.648 0l-7.412-4.279a1.116 1.116 0 0 1 -.012-2.113l7.364-4.279a4.017 4.017 0 0 1 3.648 0z" fill="url(#a7)"/><path d="m91.23 45.841a1.116 1.116 0 0 1 .011 2.113l-7.363 4.28a4.023 4.023 0 0 1 -3.648 0l-7.412-4.279a1.117 1.117 0 0 1 -.012-2.114l7.364-4.279a4.023 4.023 0 0 1 3.648 0z" fill="url(#a8)"/><path d="m91.991 47.223-.013 3.9a1.274 1.274 0 0 1 -.748 1.048l-7.363 4.28a4.021 4.021 0 0 1 -3.647 0l-7.414-4.28a1.3 1.3 0 0 1 -.761-1.064l.012-3.885a1.288 1.288 0 0 0 .761 1.057l7.412 4.277a4.007 4.007 0 0 0 3.649 0l7.364-4.277a1.28 1.28 0 0 0 .748-1.056z" fill="url(#a9)"/><path d="m73.293 50.453a.534.534 0 0 0 -.241-.418c-.133-.077-.241-.015-.241.139a.534.534 0 0 0 .241.418c.133.077.241.015.241-.139z" fill="#00e7ff"/><path d="m74.08 50.9a.532.532 0 0 0 -.242-.418c-.133-.077-.241-.014-.241.139a.532.532 0 0 0 .241.418c.134.076.242.014.242-.139z" fill="#00e7ff"/><path d="m74.806 51.327a.534.534 0 0 0 -.241-.418c-.133-.077-.241-.014-.241.139a.532.532 0 0 0 .241.418c.135.077.241.015.241-.139z" fill="#00e7ff"/><path d="m90.618 49.699-6.757 3.903v.275l6.757-3.928z" fill="url(#ba)" opacity=".16"/><path d="m90.618 50.466-6.757 3.904v.274l6.757-3.928z" fill="url(#bb)" opacity=".16"/><path d="m90.618 51.234-6.757 3.903v.275l6.757-3.928z" fill="url(#bc)" opacity=".16"/><path d="m80.243 54.391-4.643-2.682c-.066-.038-.119 0-.119.09a.285.285 0 0 0 .119.228l4.646 2.683c.066.038.12 0 .12-.091a.286.286 0 0 0 -.123-.228z" fill="url(#bd)" opacity=".34"/><path d="m91.23 41.948a1.473 1.473 0 0 1 .721.8c.142.463-.095.957-.71 1.314l-7.363 4.278a4.017 4.017 0 0 1 -3.648 0l-7.412-4.279a1.116 1.116 0 0 1 -.012-2.113l7.364-4.279a4.017 4.017 0 0 1 3.648 0z" fill="url(#be)"/><path d="m91.23 41.629a1.117 1.117 0 0 1 .011 2.114l-7.363 4.279a4.023 4.023 0 0 1 -3.648 0l-7.412-4.279a1.117 1.117 0 0 1 -.012-2.114l7.364-4.279a4.023 4.023 0 0 1 3.648 0z" fill="url(#bf)"/><path d="m91.991 43.011-.013 3.895a1.274 1.274 0 0 1 -.748 1.048l-7.363 4.28a4.021 4.021 0 0 1 -3.647 0l-7.414-4.28a1.3 1.3 0 0 1 -.761-1.064l.012-3.885a1.288 1.288 0 0 0 .761 1.057l7.412 4.277a4.007 4.007 0 0 0 3.649 0l7.364-4.277a1.28 1.28 0 0 0 .748-1.051z" fill="url(#bg)"/><path d="m73.293 46.241a.534.534 0 0 0 -.241-.418c-.133-.077-.241-.014-.241.139a.534.534 0 0 0 .241.418c.133.077.241.02.241-.139z" fill="#00e7ff"/><path d="m74.08 46.687a.532.532 0 0 0 -.242-.418c-.133-.077-.241-.014-.241.14a.535.535 0 0 0 .241.418c.134.073.242.014.242-.14z" fill="#00e7ff"/><path d="m74.806 47.115a.534.534 0 0 0 -.241-.418c-.133-.077-.241-.014-.241.139a.532.532 0 0 0 .241.418c.135.077.241.015.241-.139z" fill="#00e7ff"/><path d="m90.618 45.487-6.757 3.903v.275l6.757-3.928z" fill="url(#bh)" opacity=".16"/><path d="m90.618 46.254-6.757 3.904v.274l6.757-3.928z" fill="url(#bi)" opacity=".16"/><path d="m90.618 47.022-6.757 3.903v.275l6.757-3.928z" fill="url(#bj)" opacity=".16"/><path d="m80.243 50.179-4.643-2.679c-.066-.038-.119 0-.119.09a.285.285 0 0 0 .119.228l4.643 2.682c.066.038.12 0 .12-.091a.286.286 0 0 0 -.12-.23z" fill="url(#bk)" opacity=".34"/><g opacity=".4"><path d="m54.634 35.954.894-.516v-20.478l-.894.516z" fill="url(#bl)"/><path d="m53.108 35.008.894-.516v-20.478l-.894.516z" fill="url(#bm)"/><path d="m51.582 38.629.894-.516v-20.478l-.894.516z" fill="url(#bn)"/><path d="m50.056 37.683.894-.516v-20.478l-.894.516z" fill="url(#bo)"/></g><path d="m45.263 56.997h.376v18.447h-.376z" fill="url(#bp)" transform="matrix(.50422621 -.86357161 .86357161 .50422621 -34.653 72.081)"/><path d="m12.128 66.33h18.037v.376h-18.037z" fill="url(#bq)" transform="matrix(.8496995 -.52726726 .52726726 .8496995 -31.895 21.148)"/><path d="m38.749 56.065a12.041 12.041 0 0 0 -10.9 0c-3.009 1.737-3.009 4.553 0 6.29a12.041 12.041 0 0 0 10.9 0c3.008-1.737 3.008-4.555 0-6.29z" fill="url(#br)"/><path d="m29.356 33.348a4.818 4.818 0 0 0 .509-.169 3.491 3.491 0 0 1 -.509.169z" fill="url(#bs)"/><path d="m36.709 29.367-4.63 2.691a.687.687 0 0 0 -.09-.045l-1.475.858c-.057.033-.115.066-.172.095h-.009c-.061.033-.123.066-.184.094-.046.021-.091.041-.136.058a1.156 1.156 0 0 1 -.148.061 4.818 4.818 0 0 1 -.509.169c-.087.024-.177.049-.267.066-.181.041-.366.074-.559.1-.062.008-.123.017-.189.021s-.148.016-.222.02a9.251 9.251 0 0 1 -3.052-.353 14.087 14.087 0 0 1 -3.324-1.402c-.283-.164-.558-.337-.834-.518l4.634-2.69c.271.18.551.353.834.513a14.1 14.1 0 0 0 3.323 1.404 8.31 8.31 0 0 0 4.128.189h.005l2.382-1.384a.487.487 0 0 1 .494.053z" fill="url(#bt)"/><path d="m43.344 46.909a22.423 22.423 0 0 1 -.37 4.1c-.025.131-.049.258-.078.386a.051.051 0 0 1 0 .024c-.041.189-.082.374-.127.559a14.115 14.115 0 0 1 -1.8 4.314c-.094.143-.189.283-.288.419-.036.053-.073.107-.115.16-.053.07-.106.14-.164.209a.085.085 0 0 1 -.033.046 1.618 1.618 0 0 1 -.123.156c-.131.164-.267.32-.411.472q-.141.16-.3.308c-.246.243-.5.473-.768.69-.024.017-.045.037-.07.054-.139.111-.287.222-.431.324-.185.128-.37.247-.559.362l-.111.066a10.341 10.341 0 0 1 -5.596 1.326c-6.666-7.484-11.263-17.964-11.238-27.014a23.858 23.858 0 0 1 .147-2.593c.276.181.551.354.834.518a14.087 14.087 0 0 0 3.324 1.405 9.251 9.251 0 0 0 3.052.353c.074 0 .148-.012.222-.02s.127-.013.189-.021c.193-.024.378-.057.559-.1.09-.017.18-.042.267-.066a4.818 4.818 0 0 0 .509-.169 1.156 1.156 0 0 0 .148-.061c.045-.017.09-.037.136-.058.061-.028.123-.061.184-.094h.009c.057-.029.115-.062.172-.095l1.475-.858a.687.687 0 0 1 .09.045 1.478 1.478 0 0 1 .571.67 25.634 25.634 0 0 0 6.409 8.548 20.482 20.482 0 0 0 3.319 2.432c.284.161.563.313.838.448.084.931.132 1.846.128 2.755z" fill="url(#bu)"/><path d="m47.846 41.461-4.63 2.7c-.275-.135-.554-.287-.838-.448a20.482 20.482 0 0 1 -3.319-2.432 25.634 25.634 0 0 1 -6.409-8.548 1.478 1.478 0 0 0 -.571-.67l4.63-2.691a1.413 1.413 0 0 1 .571.67 25.8 25.8 0 0 0 6.413 8.549 20.807 20.807 0 0 0 3.319 2.428c.288.159.559.307.834.442z" fill="url(#bv)"/><path d="m47.978 44.214c-.021 6.219-2.215 10.6-5.756 12.653l-4.522 2.633c.189-.115.374-.234.559-.362.148-.1.292-.209.431-.324.025-.017.046-.037.07-.054a8.468 8.468 0 0 0 .768-.69q.155-.147.3-.308c.144-.152.28-.308.411-.472a1.618 1.618 0 0 0 .123-.156.085.085 0 0 0 .033-.046c.058-.069.111-.139.164-.209.042-.053.079-.107.115-.16.1-.136.194-.276.288-.419a14.115 14.115 0 0 0 1.8-4.314c.045-.185.086-.37.127-.559a.051.051 0 0 0 0-.024c.029-.128.053-.255.078-.386a22.423 22.423 0 0 0 .37-4.1c0-.908-.041-1.824-.128-2.753l4.63-2.695c.098.925.139 1.841.139 2.745z" fill="url(#bw)"/><path d="m35.432 37.374-10.465 12.986a38.229 38.229 0 0 1 -4.207-16.491 24.6 24.6 0 0 1 .147-2.591c.278.182.555.351.837.515a13.862 13.862 0 0 0 3.323 1.407 9.32 9.32 0 0 0 3.05.351c.074 0 .152-.013.226-.022s.125-.009.186-.017c.2-.026.377-.061.559-.1.091-.017.182-.043.269-.065.177-.052.342-.1.507-.169a1.374 1.374 0 0 0 .147-.061c.048-.017.091-.039.139-.06s.121-.061.182-.091h.008c.061-.031.117-.065.174-.1l1.473-.858a.348.348 0 0 1 .091.044 1.44 1.44 0 0 1 .572.671 23.083 23.083 0 0 0 2.782 4.651z" fill="url(#bx)"/><path d="m37.851 40.139-11.015 13.666c-3.756-6.3-6.092-13.48-6.074-19.936a24.6 24.6 0 0 1 .147-2.591c.277.182.554.351.836.515a13.868 13.868 0 0 0 3.324 1.407 9.32 9.32 0 0 0 3.05.351c.074 0 .152-.013.225-.022s.126-.009.187-.017c.2-.026.377-.061.559-.1.091-.017.182-.043.268-.065.178-.052.343-.1.507-.169a1.391 1.391 0 0 0 .148-.061c.047-.017.091-.039.138-.06s.122-.061.182-.091h.009c.061-.031.117-.065.173-.1l1.473-.858a.333.333 0 0 1 .091.044 1.434 1.434 0 0 1 .572.671c.07.156.139.308.213.464.06.13.125.264.2.4a.439.439 0 0 0 .043.091c.074.147.152.294.23.441 0 0 0 0 .008.009.07.139.148.277.23.42a.587.587 0 0 0 .061.1c.078.139.16.278.242.416q.176.306.377.611a26.8 26.8 0 0 0 2.765 3.579c.263.308.541.599.831.885z" fill="url(#by)" opacity=".45"/><path d="m44.359 69.067a3.253 3.253 0 0 1 -1.6-.387l-4.422-2.6.19-.325 4.422 2.6a3.116 3.116 0 0 0 2.812 0l6.3-3.649.188.325-6.3 3.649a3.242 3.242 0 0 1 -1.59.387z" fill="url(#bz)"/><path d="m37.677 66.288a1.737 1.737 0 0 1 -.853-.207.647.647 0 0 1 0-1.2 1.867 1.867 0 0 1 1.706 0 .647.647 0 0 1 0 1.2 1.737 1.737 0 0 1 -.853.207zm0-1.24a1.37 1.37 0 0 0 -.665.156c-.14.081-.22.181-.22.276s.08.194.22.274a1.489 1.489 0 0 0 1.33 0c.14-.08.221-.18.221-.274s-.081-.2-.221-.276a1.364 1.364 0 0 0 -.665-.156z" fill="url(#bA)"/><path d="m51.178 65.229a3.275 3.275 0 0 1 -1.6-.39l-4.422-2.6.19-.324 4.421 2.6a3.112 3.112 0 0 0 2.813 0l3.12-1.015.116.359-3.089 1a3.143 3.143 0 0 1 -1.549.37z" fill="url(#bB)"/><path d="m44.488 62.448a1.744 1.744 0 0 1 -.854-.207.647.647 0 0 1 0-1.2 1.863 1.863 0 0 1 1.707 0 .647.647 0 0 1 0 1.2 1.737 1.737 0 0 1 -.853.207zm0-1.24a1.364 1.364 0 0 0 -.665.156c-.14.081-.22.181-.22.275s.08.2.22.276a1.489 1.489 0 0 0 1.33 0c.14-.081.22-.182.22-.275s-.08-.2-.22-.276a1.37 1.37 0 0 0 -.665-.156z" fill="url(#bC)"/><path d="m44.956 73.149a.5.5 0 0 0 .246.5l.386.23.371-.5 11.975-16.219.181-.244-.385-.23a.225.225 0 0 0 -.038-.019.416.416 0 0 0 -.362.048l-11.872 6.725a1.142 1.142 0 0 0 -.489.915z" fill="url(#bD)"/><path d="m45.959 73.379 11.474-6.5a1.147 1.147 0 0 0 .488-.916l.013-8.793v-.01z" fill="url(#bE)"/><path d="m67.159 71.873v.411a.235.235 0 0 1 -.139.2l-12.215 6.916a.908.908 0 0 1 -.805-.03l-8.125-4.636a.329.329 0 0 1 -.2-.26v-.411l.212.171 12.141-6.881a.909.909 0 0 1 .806.034l8.126 4.637c.038.022.024-.093.051-.068z" fill="url(#bF)"/><path d="m58.17 56.958a.32.32 0 0 0 -.055-.042.269.269 0 0 0 -.038-.019.415.415 0 0 0 -.363.049l-11.871 6.724a1.141 1.141 0 0 0 -.488.916l-.014 8.793a.5.5 0 0 0 .246.5.416.416 0 0 0 .363-.049l11.868-6.726a1.144 1.144 0 0 0 .488-.916l.013-8.793a.588.588 0 0 0 -.149-.437z" fill="url(#bG)"/><path d="m58.029 66.943-12.213 6.921a.237.237 0 0 0 -.14.2.325.325 0 0 0 .2.26l8.124 4.636a.909.909 0 0 0 .806.034l12.214-6.922a.239.239 0 0 0 .14-.2.329.329 0 0 0 -.2-.26l-8.126-4.636a.908.908 0 0 0 -.805-.033z" fill="url(#bH)"/><path d="m47.817 73.716.289.165c.035.02.039.05.008.067l-1.01.573a.133.133 0 0 1 -.118 0l-.289-.165c-.034-.02-.038-.05-.008-.067l1.011-.573a.134.134 0 0 1 .117 0zm.125.534-.658.374c-.031.017-.027.046.008.066l.641.366a.131.131 0 0 0 .117.005l.659-.373c.03-.017.026-.047-.009-.067l-.641-.366a.134.134 0 0 0 -.117-.005zm1-.565-.658.373c-.03.018-.027.047.008.067l.641.366a.131.131 0 0 0 .117 0l.659-.373c.03-.017.026-.047-.009-.067l-.641-.366a.131.131 0 0 0 -.12 0zm1-.565-.658.373c-.03.017-.027.047.008.067l.641.366a.131.131 0 0 0 .117 0l.659-.373c.03-.018.026-.047-.009-.067l-.64-.366a.133.133 0 0 0 -.124 0zm1-.565-.658.373c-.03.017-.027.047.008.067l.641.366a.131.131 0 0 0 .117 0l.659-.374c.03-.017.026-.046-.009-.066l-.64-.366a.133.133 0 0 0 -.127 0zm1-.565-.658.373c-.03.017-.027.047.008.067l.641.366a.134.134 0 0 0 .117 0l.659-.374c.03-.017.026-.046-.009-.066l-.652-.356a.133.133 0 0 0 -.118-.01zm1-.565-.658.373c-.03.017-.026.047.008.067l.641.366a.134.134 0 0 0 .117.005l.659-.374c.03-.017.026-.047-.008-.066l-.641-.366a.133.133 0 0 0 -.133-.005zm1-.565-.659.373c-.03.017-.026.047.008.067l.641.366a.134.134 0 0 0 .117.005l.659-.374c.03-.017.026-.047-.008-.066l-.641-.366a.131.131 0 0 0 -.134-.005zm1-.565-.659.373c-.03.017-.026.047.008.067l.641.366a.131.131 0 0 0 .117 0l.659-.373c.03-.017.026-.047-.008-.066l-.641-.366a.131.131 0 0 0 -.137.004zm1-.565-.659.373c-.03.017-.026.047.008.067l.641.365a.133.133 0 0 0 .118.005l.658-.373c.03-.017.026-.047-.008-.066l-.641-.366a.131.131 0 0 0 -.14-.005zm1-.565-.659.373c-.03.017-.026.047.009.067l.64.365a.133.133 0 0 0 .118 0l.658-.373c.03-.017.026-.047-.008-.067l-.641-.365a.131.131 0 0 0 -.143 0zm1-.565-.659.373c-.03.017-.026.047.009.067l.64.365a.133.133 0 0 0 .118 0l.658-.373c.03-.017.027-.047-.008-.067l-.641-.365a.131.131 0 0 0 -.146 0zm1.527-.865-1.2.676c-.03.017-.026.047.009.067l.64.366a.133.133 0 0 0 .118.005l1.194-.677c.03-.017.026-.047-.008-.067l-.641-.365a.131.131 0 0 0 -.141-.005zm-10.038 6.748-1.2.681c-.03.017-.026.046.008.066l.641.366a.131.131 0 0 0 .117 0l1.2-.681c.03-.017.026-.046-.008-.066l-.641-.366a.131.131 0 0 0 -.117 0zm.988-.56-.658.373c-.03.017-.027.047.008.067l.641.366a.131.131 0 0 0 .117 0l.659-.373c.03-.017.026-.047-.009-.066l-.641-.366a.131.131 0 0 0 -.117-.001zm1-.565-.658.373c-.03.017-.027.047.008.067l.641.365a.131.131 0 0 0 .117.005l.659-.373c.03-.017.026-.047-.009-.066l-.641-.366a.131.131 0 0 0 -.12-.005zm1-.565-.658.373c-.03.017-.027.047.008.067l.641.365a.131.131 0 0 0 .117 0l.659-.373c.03-.017.026-.047-.009-.067l-.64-.365a.133.133 0 0 0 -.124 0zm1-.565-.658.373c-.03.017-.027.047.008.067l.641.365a.131.131 0 0 0 .117 0l.659-.373c.03-.017.026-.047-.009-.067l-.64-.365a.133.133 0 0 0 -.127 0zm1-.565-.658.373c-.03.017-.026.047.008.067l.641.365a.131.131 0 0 0 .117 0l.659-.373c.03-.017.026-.047-.009-.067l-.64-.365a.133.133 0 0 0 -.13 0zm1-.565-.658.373c-.03.017-.026.047.008.067l.641.365a.131.131 0 0 0 .117 0l.659-.373c.03-.017.026-.047-.008-.067l-.641-.365a.133.133 0 0 0 -.137.002zm1-.565-.659.373c-.03.017-.026.047.008.067l.641.365a.131.131 0 0 0 .117.005l.659-.373c.03-.017.026-.047-.008-.067l-.641-.365a.131.131 0 0 0 -.136-.005zm1-.565-.659.373c-.03.017-.026.047.008.067l.641.365a.131.131 0 0 0 .117.005l.659-.373c.03-.017.026-.047-.008-.067l-.641-.365a.131.131 0 0 0 -.136-.005zm1-.565-.659.373c-.03.017-.026.047.008.066l.641.366a.133.133 0 0 0 .118 0l.658-.373c.03-.017.026-.047-.008-.067l-.641-.365a.128.128 0 0 0 -.136-.003zm1-.566-.659.374c-.03.017-.026.047.009.066l.64.366a.133.133 0 0 0 .118 0l.658-.373c.03-.017.027-.047-.008-.067l-.641-.366a.134.134 0 0 0 -.143 0zm.993-.562-.659.373c-.03.017-.026.047.009.067l.641.365a.131.131 0 0 0 .117 0l.658-.373c.03-.017.027-.047-.008-.067l-.67-.36a.131.131 0 0 0 -.114-.005zm-9.764 6.595-1.472.834c-.03.017-.026.047.009.066l.641.366a.131.131 0 0 0 .117.005l1.472-.834c.03-.017.026-.047-.009-.067l-.641-.365a.131.131 0 0 0 -.117-.005zm.993-.563-.659.373c-.03.017-.026.047.009.067l.64.366a.137.137 0 0 0 .118 0l.658-.374c.03-.017.027-.047-.008-.066l-.641-.366a.131.131 0 0 0 -.117 0zm1-.565-.659.373c-.03.017-.026.047.009.067l.641.365a.128.128 0 0 0 .117.005l.658-.373c.03-.017.027-.047-.008-.066l-.641-.366a.131.131 0 0 0 -.12-.005zm1-.565-.659.373c-.03.017-.026.047.009.067l.641.365a.131.131 0 0 0 .117 0l.658-.373c.03-.017.027-.047-.008-.067l-.641-.365a.131.131 0 0 0 -.123 0zm1-.565-.658.373c-.031.017-.027.047.008.067l.641.365a.131.131 0 0 0 .117 0l.658-.373c.031-.017.027-.047-.008-.067l-.641-.365a.131.131 0 0 0 -.126 0zm1-.565-.658.373c-.03.017-.027.047.008.067l.641.365a.131.131 0 0 0 .117 0l.659-.373c.03-.017.026-.047-.009-.067l-.641-.365a.131.131 0 0 0 -.129 0zm1-.565-.658.373c-.03.017-.027.047.008.067l.641.365a.131.131 0 0 0 .117 0l.659-.373c.03-.017.026-.047-.009-.067l-.641-.365a.131.131 0 0 0 -.132 0zm1-.565-.658.373c-.03.017-.027.047.008.067l.641.365a.131.131 0 0 0 .117.005l.659-.373c.03-.017.026-.047-.009-.067l-.64-.365a.133.133 0 0 0 -.136-.005zm1-.565-.658.373c-.03.017-.027.047.008.067l.641.365a.131.131 0 0 0 .117.005l.659-.373c.03-.017.026-.047-.009-.067l-.64-.365a.133.133 0 0 0 -.139-.005zm1-.565-.658.373c-.03.017-.026.047.008.066l.641.366a.131.131 0 0 0 .117 0l.659-.373c.03-.017.026-.047-.009-.067l-.64-.365a.133.133 0 0 0 -.142 0zm.684.689-.659.373c-.03.017-.026.047.009.067l.641.365a.131.131 0 0 0 .117 0l.658-.373c.03-.017.027-.047-.008-.067l-.641-.365a.131.131 0 0 0 -.142 0zm.981-.556-.659.373c-.03.017-.026.047.009.067l.64.365a.133.133 0 0 0 .118.005l.658-.373c.03-.017.027-.047-.008-.067l-.641-.365a.131.131 0 0 0 -.141-.005zm1-.565-.659.373c-.03.017-.026.047.009.067l.64.365a.133.133 0 0 0 .118.005l.658-.373c.03-.017.027-.047-.008-.067l-.664-.365a.131.131 0 0 0 -.121-.005zm-.947-.54-1.376.78c-.03.017-.026.047.008.066l.641.366a.131.131 0 0 0 .117 0l1.377-.78c.03-.017.026-.047-.009-.067l-.64-.365a.133.133 0 0 0 -.145 0zm-10.578 7.055-.658.374c-.03.017-.026.047.008.066l.641.366a.131.131 0 0 0 .117 0l.659-.373c.03-.017.026-.047-.008-.067l-.641-.366a.136.136 0 0 0 -.118 0zm1-.565-.658.374c-.03.017-.026.047.008.066l.641.366a.131.131 0 0 0 .117 0l.659-.373c.03-.017.026-.047-.008-.067l-.64-.361a.136.136 0 0 0 -.122-.005zm1.278-.724-.93.527c-.03.017-.026.047.009.067l.64.366a.137.137 0 0 0 .118.005l.929-.527c.03-.017.027-.047-.008-.067l-.641-.366a.134.134 0 0 0 -.12-.005zm6.264-3.55-.875.5c-.03.017-.027.046.008.066l.641.366a.131.131 0 0 0 .117.005l.875-.5c.031-.017.027-.047-.008-.067l-.641-.366a.134.134 0 0 0 -.12-.004zm-1.242.7-4.642 2.63c-.03.017-.027.047.008.067l.641.366a.134.134 0 0 0 .117 0l4.642-2.631c.03-.017.026-.047-.008-.067l-.641-.365a.131.131 0 0 0 -.12.005zm-9.367 1.4-.658.373c-.031.017-.027.047.008.067l.289.165a.131.131 0 0 0 .117.005l.659-.373c.03-.017.026-.047-.009-.067l-.289-.165a.131.131 0 0 0 -.12.002zm1.013-.574-.658.373c-.03.017-.026.047.008.067l.289.165a.133.133 0 0 0 .118.005l.658-.373c.03-.018.026-.047-.008-.067l-.289-.165a.133.133 0 0 0 -.121.002zm1.014-.574-.659.373c-.03.017-.026.047.009.067l.289.164a.131.131 0 0 0 .117.005l.658-.373c.031-.017.027-.047-.008-.066l-.292-.153a.131.131 0 0 0 -.117-.01zm1.013-.575-.658.374c-.03.017-.027.046.008.066l.289.165a.131.131 0 0 0 .117.005l.659-.373c.03-.017.026-.047-.008-.067l-.289-.165a.137.137 0 0 0 -.121.002zm1.014-.574-.659.373c-.03.017-.026.047.008.067l.289.165a.133.133 0 0 0 .118 0l.658-.373c.03-.017.027-.047-.008-.067l-.289-.165a.131.131 0 0 0 -.12.007zm1.013-.574-.659.373c-.03.017-.026.047.009.067l.289.165a.134.134 0 0 0 .117 0l.659-.374c.03-.017.026-.047-.009-.066l-.289-.165a.131.131 0 0 0 -.12.007zm1.013-.575-.658.374c-.03.017-.027.047.008.066l.289.165a.131.131 0 0 0 .117.005l.659-.373c.03-.017.026-.047-.008-.067l-.289-.165a.137.137 0 0 0 -.121.002zm1.014-.574-.659.373c-.03.017-.026.047.009.067l.289.165a.131.131 0 0 0 .117 0l.658-.373c.03-.017.027-.047-.008-.067l-.289-.165a.131.131 0 0 0 -.12.007zm1.013-.574-.658.373c-.031.017-.027.047.008.067l.289.165a.134.134 0 0 0 .117 0l.659-.374c.03-.017.026-.046-.009-.066l-.289-.165a.131.131 0 0 0 -.12.007zm1.013-.574-.658.373c-.03.017-.026.047.008.066l.289.165a.133.133 0 0 0 .118 0l.658-.373c.03-.017.026-.047-.008-.067l-.289-.164a.133.133 0 0 0 -.121.007zm1.014-.575-.659.373a.037.037 0 0 0 -.02.029c0 .014.01.027.029.038l.289.165a.131.131 0 0 0 .117 0l.658-.373a.035.035 0 0 0 .021-.029.049.049 0 0 0 -.029-.038l-.289-.165a.131.131 0 0 0 -.12.012z" fill="url(#bI)"/><path d="m59.62 72.161-4.633 2.626c-.087.049-.077.136.024.193l2.671 1.525a.385.385 0 0 0 .341.014l4.633-2.626c.087-.049.076-.136-.024-.193l-2.671-1.524a.385.385 0 0 0 -.341-.015z" fill="url(#bJ)"/><path d="m57.741 57.5-11.594 6.57a.42.42 0 0 0 -.194.33l-.012 8.07c0 .122.087.171.194.111l11.593-6.57a.421.421 0 0 0 .194-.33l.012-8.071c0-.126-.086-.176-.193-.11z" fill="#fff"/><path d="m22.4 68.86a3.27 3.27 0 0 1 -1.594-.38l-6.3-3.65.194-.33 6.3 3.65a3.109 3.109 0 0 0 2.813 0l4.421-2.6.19.324-4.424 2.605a3.271 3.271 0 0 1 -1.6.381z" fill="url(#bK)"/><path d="m29.085 66.088a1.737 1.737 0 0 1 -.853-.207.647.647 0 0 1 0-1.2 1.861 1.861 0 0 1 1.706 0 .647.647 0 0 1 0 1.2 1.737 1.737 0 0 1 -.853.207zm0-1.24a1.364 1.364 0 0 0 -.665.152c-.14.081-.221.181-.221.275s.081.2.221.276a1.489 1.489 0 0 0 1.33 0c.14-.081.22-.181.22-.276s-.08-.194-.22-.275a1.367 1.367 0 0 0 -.665-.152z" fill="url(#bL)"/><path d="m15.372 64.68a3.249 3.249 0 0 1 -1.6-.387l-3.053-.983.116-.358 3.089 1a3.134 3.134 0 0 0 2.85.016l4.42-2.6.191.324-4.422 2.6a3.253 3.253 0 0 1 -1.591.388z" fill="url(#bM)"/><path d="m22.053 61.9a1.736 1.736 0 0 1 -.853-.2.647.647 0 0 1 0-1.2 1.863 1.863 0 0 1 1.707 0 .647.647 0 0 1 0 1.2 1.735 1.735 0 0 1 -.854.2zm0-1.24a1.363 1.363 0 0 0 -.664.156c-.14.081-.221.182-.221.276s.081.194.22.275a1.487 1.487 0 0 0 1.329 0c.141-.081.221-.181.221-.275s-.08-.2-.221-.276a1.364 1.364 0 0 0 -.664-.154z" fill="url(#bN)"/><path d="m23.649 73.471a.5.5 0 0 1 -.246.5l-.385.231-.371-.5-11.976-16.219-.181-.244.385-.231.038-.019a.41.41 0 0 1 .362.048l11.868 6.726a1.145 1.145 0 0 1 .489.916z" fill="url(#bO)"/><path d="m22.647 73.7-11.475-6.5a1.147 1.147 0 0 1 -.488-.916l-.013-8.793v-.008z" fill="url(#bP)"/><path d="m1.446 72.2v.41a.235.235 0 0 0 .14.2l12.214 6.917a.909.909 0 0 0 .806-.034l8.126-4.637a.327.327 0 0 0 .2-.259v-.411l-.213.17-12.141-6.88a.909.909 0 0 0 -.806.034l-8.128 4.637c-.038.021-.024-.093-.051-.069z" fill="url(#bQ)"/><path d="m10.435 57.28a.271.271 0 0 1 .055-.041.275.275 0 0 1 .038-.02.413.413 0 0 1 .362.048l11.868 6.726a1.148 1.148 0 0 1 .489.916l.013 8.793a.5.5 0 0 1 -.246.5.413.413 0 0 1 -.362-.048l-11.865-6.724a1.144 1.144 0 0 1 -.488-.916l-.013-8.793a.592.592 0 0 1 .149-.441z" fill="url(#bR)"/><path d="m10.576 67.265 12.214 6.922a.235.235 0 0 1 .139.2.325.325 0 0 1 -.2.26l-8.125 4.636a.908.908 0 0 1 -.807.034l-12.211-6.917a.238.238 0 0 1 -.139-.2.324.324 0 0 1 .2-.26l8.122-4.64a.911.911 0 0 1 .807-.035z" fill="url(#bS)"/><path d="m20.905 74.034 1.011.573c.03.017.027.047-.008.067l-.289.165a.131.131 0 0 1 -.117 0l-1.011-.572c-.03-.017-.027-.047.008-.067l.289-.165a.131.131 0 0 1 .117-.001zm-.359.544-.641.366c-.035.019-.038.049-.008.066l.658.374a.137.137 0 0 0 .118 0l.64-.366c.035-.02.039-.05.009-.067l-.659-.373a.131.131 0 0 0 -.117 0zm-1-.565-.641.366c-.035.019-.038.049-.008.066l.658.373a.128.128 0 0 0 .117 0l.641-.365c.035-.02.039-.05.009-.067l-.659-.373a.131.131 0 0 0 -.114 0zm-1-.565-.641.365c-.035.02-.039.05-.008.067l.658.373a.131.131 0 0 0 .117 0l.641-.365c.035-.02.039-.05.008-.067l-.658-.373a.131.131 0 0 0 -.111 0zm-1-.565-.641.365c-.035.02-.039.05-.009.067l.659.373a.131.131 0 0 0 .117 0l.641-.365c.035-.02.039-.05.008-.067l-.658-.373a.131.131 0 0 0 -.108 0zm-1-.565-.641.365c-.035.02-.039.05-.009.067l.659.373a.131.131 0 0 0 .117-.005l.641-.365c.035-.02.038-.05.008-.067l-.658-.373a.131.131 0 0 0 -.105.005zm-1-.565-.64.365c-.035.02-.039.05-.009.067l.659.373a.131.131 0 0 0 .117-.005l.641-.365c.035-.02.038-.05.008-.067l-.658-.373a.133.133 0 0 0 -.104.005zm-1-.565-.64.365c-.035.02-.039.05-.009.067l.659.373a.131.131 0 0 0 .117 0l.641-.365c.035-.02.038-.05.008-.067l-.658-.373a.133.133 0 0 0 -.101 0zm-1-.565-.64.365c-.035.02-.039.05-.009.067l.659.373a.131.131 0 0 0 .117 0l.641-.365c.035-.02.038-.05.008-.067l-.658-.373a.133.133 0 0 0 -.098 0zm-1-.565-.641.365c-.034.02-.038.05-.008.067l.659.373a.131.131 0 0 0 .117 0l.641-.366c.034-.019.038-.049.008-.066l-.658-.373a.133.133 0 0 0 -.095 0zm-1-.566-.641.366c-.034.02-.038.05-.008.067l.659.373a.131.131 0 0 0 .117 0l.641-.366c.034-.019.038-.049.008-.066l-.659-.373a.131.131 0 0 0 -.091-.001zm-1-.565-.641.366c-.034.02-.038.05-.008.067l.659.373a.131.131 0 0 0 .117-.005l.641-.366c.034-.019.038-.049.008-.066l-.659-.374a.134.134 0 0 0 -.088.005zm-1.527-.865-.64.366c-.035.02-.039.049-.009.067l1.2.676a.131.131 0 0 0 .117-.005l.641-.365c.034-.02.038-.05.008-.067l-1.194-.677a.133.133 0 0 0 -.094.005zm10.009 6.749-.641.365c-.034.02-.038.05-.008.067l1.2.681a.134.134 0 0 0 .117-.005l.641-.366c.035-.02.038-.05.008-.067l-1.2-.68a.133.133 0 0 0 -.088.005zm-.988-.56-.641.365c-.035.02-.038.05-.008.067l.658.373a.131.131 0 0 0 .117 0l.641-.365c.035-.02.039-.05.009-.067l-.659-.373a.131.131 0 0 0 -.088 0zm-1-.565-.641.365c-.035.02-.038.05-.008.067l.658.373a.131.131 0 0 0 .117 0l.641-.366c.035-.019.039-.049.009-.066l-.659-.373a.131.131 0 0 0 -.085 0zm-1-.566-.641.366c-.035.02-.039.05-.008.067l.658.373a.131.131 0 0 0 .117 0l.641-.366c.035-.019.039-.049.008-.066l-.658-.373a.131.131 0 0 0 -.082-.001zm-1-.565-.641.366c-.035.02-.039.05-.009.067l.659.373a.131.131 0 0 0 .117-.005l.641-.366c.035-.019.038-.049.008-.066l-.615-.374a.134.134 0 0 0 -.122.005zm-1-.565-.641.366c-.035.02-.039.05-.009.067l.659.373a.131.131 0 0 0 .117-.005l.641-.366c.035-.019.038-.049.008-.066l-.658-.374a.134.134 0 0 0 -.076.005zm-1-.565-.64.366c-.035.02-.039.05-.009.067l.659.373a.131.131 0 0 0 .117 0l.641-.366c.035-.02.038-.049.008-.066l-.616-.379a.137.137 0 0 0 -.117.005zm-1-.565-.64.366c-.035.02-.039.05-.009.067l.659.373a.131.131 0 0 0 .117 0l.641-.366c.035-.02.038-.049.008-.066l-.658-.374a.133.133 0 0 0 -.072 0zm-1-.565-.64.366c-.035.02-.039.05-.009.067l.659.373a.131.131 0 0 0 .117 0l.641-.366c.034-.02.038-.049.008-.067l-.658-.373a.133.133 0 0 0 -.069.005zm-1-.565-.641.366c-.034.02-.038.049-.008.067l.659.373a.131.131 0 0 0 .117 0l.641-.366c.034-.02.038-.05.008-.067l-.658-.373a.133.133 0 0 0 -.066 0zm-1-.565-.641.366c-.034.02-.038.049-.008.066l.659.374a.134.134 0 0 0 .117-.005l.641-.366c.034-.02.038-.05.008-.067l-.659-.373a.131.131 0 0 0 -.057.005zm-.94-.565-.641.366c-.035.02-.038.05-.008.067l.658.373a.133.133 0 0 0 .118 0l.64-.366c.035-.02.039-.049.009-.067l-.657-.373a.131.131 0 0 0 -.119 0zm9.74 6.6-.641.366c-.035.02-.038.05-.008.067l1.471.834a.137.137 0 0 0 .118 0l.64-.366c.035-.02.039-.05.009-.067l-1.472-.834a.131.131 0 0 0 -.117 0zm-.993-.562-.641.362c-.034.02-.038.05-.008.067l.658.373a.133.133 0 0 0 .118 0l.641-.365c.034-.02.038-.05.008-.067l-.659-.373a.131.131 0 0 0 -.117 0zm-1-.565-.641.365c-.034.02-.038.05-.008.067l.658.373a.133.133 0 0 0 .118 0l.64-.365c.035-.02.039-.05.009-.067l-.659-.373a.131.131 0 0 0 -.114-.003zm-1-.565-.641.365c-.035.02-.038.05-.008.067l.658.373a.133.133 0 0 0 .118 0l.64-.366c.035-.019.039-.049.009-.066l-.653-.381a.131.131 0 0 0 -.117.005zm-1-.566-.641.366c-.035.02-.038.05-.008.067l.658.373a.133.133 0 0 0 .118-.005l.64-.366c.035-.019.039-.049.009-.066l-.659-.374a.134.134 0 0 0 -.108.002zm-1-.565-.641.366c-.035.02-.038.05-.008.067l.658.373a.131.131 0 0 0 .117-.005l.641-.366c.035-.019.039-.049.009-.066l-.659-.374a.134.134 0 0 0 -.105.002zm-1-.565-.641.366c-.035.02-.038.05-.008.067l.658.373a.131.131 0 0 0 .117 0l.641-.366c.035-.019.039-.049.009-.066l-.659-.374a.134.134 0 0 0 -.102-.003zm-1-.565-.641.366c-.035.02-.039.05-.008.067l.658.373a.131.131 0 0 0 .117 0l.641-.366c.035-.02.039-.049.008-.066l-.658-.374a.134.134 0 0 0 -.099-.003zm-1-.565-.641.366c-.035.02-.039.05-.009.067l.659.373a.131.131 0 0 0 .117 0l.641-.366c.035-.02.038-.049.008-.067l-.658-.373a.131.131 0 0 0 -.096-.003zm-1-.565-.641.366c-.035.02-.039.049-.009.067l.659.373a.131.131 0 0 0 .117 0l.641-.366c.035-.02.038-.05.008-.067l-.658-.373a.131.131 0 0 0 -.093-.003zm-.684.689-.641.366c-.034.02-.038.05-.008.067l.658.373a.133.133 0 0 0 .118 0l.64-.366c.035-.02.039-.049.009-.067l-.639-.379a.131.131 0 0 0 -.113 0zm-.981-.556-.641.366c-.034.02-.038.05-.008.067l.659.373a.131.131 0 0 0 .117 0l.641-.366c.034-.019.038-.049.008-.066l-.659-.374a.134.134 0 0 0 -.093-.003zm-1-.565-.641.366c-.034.02-.038.05-.008.067l.658.373a.133.133 0 0 0 .118 0l.641-.366c.034-.02.038-.049.008-.066l-.659-.374a.134.134 0 0 0 -.09-.003zm.946-.54-.64.366c-.035.02-.039.05-.009.067l1.377.78a.131.131 0 0 0 .144-.008l.641-.366c.035-.02.038-.05.008-.067l-1.376-.78a.133.133 0 0 0 -.118.005zm10.578 7.055-.64.366c-.035.019-.039.049-.009.066l.659.374a.134.134 0 0 0 .117-.006l.641-.366c.035-.02.038-.05.008-.067l-.658-.373a.133.133 0 0 0 -.118.006zm-1-.565-.64.366c-.035.019-.039.049-.009.066l.659.374a.134.134 0 0 0 .117 0l.641-.366c.035-.02.038-.05.008-.067l-.658-.373a.133.133 0 0 0 -.115-.002zm-1.277-.724-.641.366c-.034.02-.038.049-.008.066l.93.527a.131.131 0 0 0 .117 0l.641-.365c.034-.02.038-.05.008-.067l-.93-.527a.131.131 0 0 0 -.114-.002zm-6.264-3.55-.641.366c-.035.02-.038.049-.008.066l.875.5a.134.134 0 0 0 .117 0l.641-.366c.035-.02.039-.05.009-.067l-.876-.5a.131.131 0 0 0 -.114-.001zm1.242.7-.64.366c-.035.02-.039.05-.009.067l4.642 2.63a.131.131 0 0 0 .117-.005l.641-.365c.035-.02.039-.05.009-.067l-4.642-2.631a.133.133 0 0 0 -.115.007zm9.367 1.4-.289.165c-.035.02-.039.049-.009.066l.659.374a.134.134 0 0 0 .117 0l.289-.165c.035-.02.039-.05.009-.067l-.659-.373a.131.131 0 0 0 -.114.005zm-1.014-.574-.289.164c-.034.02-.038.05-.008.067l.659.373a.131.131 0 0 0 .117 0l.289-.165c.035-.019.038-.049.008-.066l-.658-.373a.133.133 0 0 0 -.115.005zm-1.013-.575-.289.165c-.035.02-.038.05-.008.067l.658.373a.133.133 0 0 0 .118 0l.289-.165c.034-.02.038-.049.008-.067l-.659-.373a.131.131 0 0 0 -.114.005zm-1.013-.574-.289.165c-.035.02-.039.05-.009.067l.659.373a.131.131 0 0 0 .117 0l.289-.165c.035-.02.039-.05.009-.067l-.659-.373a.131.131 0 0 0 -.114.005zm-1.014-.574-.289.165c-.034.019-.038.049-.008.066l.658.373a.133.133 0 0 0 .118 0l.289-.165c.035-.02.038-.05.008-.067l-.658-.373a.133.133 0 0 0 -.115.006zm-1.013-.575-.289.165c-.035.02-.038.05-.008.067l.658.373a.131.131 0 0 0 .117 0l.289-.165c.035-.019.039-.049.009-.066l-.659-.374a.134.134 0 0 0 -.114.005zm-1.007-.569-.289.165c-.035.02-.039.05-.009.067l.659.373a.131.131 0 0 0 .117 0l.289-.165c.035-.02.038-.05.008-.067l-.658-.373a.131.131 0 0 0 -.117 0zm-1.014-.574-.289.165c-.035.019-.038.049-.008.066l.658.374a.137.137 0 0 0 .118 0l.289-.165c.034-.02.038-.05.008-.067l-.659-.373a.131.131 0 0 0 -.12 0zm-1.013-.575-.289.165c-.035.02-.039.05-.009.067l.659.373a.131.131 0 0 0 .117 0l.289-.165c.035-.019.039-.049.009-.066l-.659-.373a.131.131 0 0 0 -.12-.001zm-1.017-.571-.289.165c-.034.02-.038.05-.008.067l.659.373a.131.131 0 0 0 .117 0l.289-.165c.035-.02.038-.05.008-.067l-.658-.373a.133.133 0 0 0 -.118 0zm-1.013-.574-.289.165c-.019.011-.029.024-.029.038a.036.036 0 0 0 .021.029l.658.373a.133.133 0 0 0 .118-.005l.289-.165a.047.047 0 0 0 .028-.038.033.033 0 0 0 -.02-.029l-.659-.373a.131.131 0 0 0 -.117.002z" fill="url(#bT)"/><path d="m8.985 72.484 4.633 2.625c.088.05.077.137-.024.194l-2.671 1.524a.385.385 0 0 1 -.341.015l-4.633-2.626c-.087-.049-.076-.136.025-.194l2.671-1.522a.382.382 0 0 1 .34-.016z" fill="url(#bU)"/><path d="m10.864 57.817 11.594 6.571a.418.418 0 0 1 .194.33l.012 8.07c0 .122-.086.171-.193.11l-11.594-6.57a.418.418 0 0 1 -.194-.33l-.012-8.07c0-.122.086-.171.193-.111z" fill="#fff"/><ellipse cx="65.085" cy="38.729" fill="url(#bV)" rx="1.073" ry=".62"/><path d="m50.234 55.532a1.738 1.738 0 0 1 -.854-.207.647.647 0 0 1 0-1.2 1.857 1.857 0 0 1 1.707 0 .647.647 0 0 1 0 1.2 1.74 1.74 0 0 1 -.853.207zm0-1.239a1.353 1.353 0 0 0 -.665.156c-.141.08-.221.181-.221.275s.08.194.221.275a1.487 1.487 0 0 0 1.331.001c.14-.081.221-.181.221-.275s-.081-.195-.221-.275a1.352 1.352 0 0 0 -.666-.157z" fill="url(#bW)"/></svg>